<svg height="452pt" viewBox="0 -1 452.03411 452" width="452pt" xmlns="http://www.w3.org/2000/svg"><path d="m291.011719 220.472656c-11.191407-.609375-21.976563-2.9375-32.03125-6.71875l-.390625 116.003906-.101563 29.597657-.117187 35.160156c-.039063 7.183594 5.769531 13.011719 12.949218 13.03125l59.191407.203125c6.371093.039062 11.835937-4.59375 12.867187-10.90625l34.441406-212.132812c-21.140624 23.457031-52.367187 37.621093-86.808593 35.761718zm0 0" fill="#f16c7a"/><path d="m379.121094 182.007812c-1.203125-.578124-2.636719-.292968-3.527344.695313-21.492188 23.835937-52.253906 36.492187-84.417969 34.773437-10.683593-.582031-21.160156-2.777343-31.140625-6.53125-.921875-.347656-1.949218-.21875-2.757812.335938-.808594.558594-1.292969 1.476562-1.296875 2.460938l-.386719 116.003906c-.007812 1.65625 1.332031 3.003906 2.988281 3.011718h.011719c1.648438 0 2.992188-1.335937 3-2.992187l.375-111.773437c9.324219 3.101562 19.023438 4.941406 28.882812 5.472656 30.769532 1.660156 60.324219-9.15625 82.5-29.910156l-32.929687 202.804687c-.792969 4.875-4.921875 8.390625-9.832031 8.390625-.023438 0-.042969 0-.066406 0l-59.191407-.203125c-2.679687-.007813-5.195312-1.054687-7.074219-2.957031-1.875-1.886719-2.898437-4.394532-2.882812-7.066406l.117188-35.160157c.007812-1.65625-1.332032-3.003906-2.988282-3.007812-.003906 0-.007812 0-.011718 0-1.648438 0-2.992188 1.335937-3 2.988281l-.117188 35.152344c-.023438 4.269531 1.617188 8.289062 4.621094 11.320312 3.015625 3.039063 7.035156 4.714844 11.320312 4.726563l59.179688.207031h.105468c7.859376 0 14.46875-5.628906 15.746094-13.425781l34.441406-212.132813c.207032-1.3125-.46875-2.605468-1.667968-3.183594zm0 0" fill="#3a312a"/><path d="m188.359375 117.125c-1.578125-33.328125 11.816406-63.519531 34.035156-84.460938l-66.757812 10.648438-28.261719 4.515625-25.421875 4.0625-41.929687 6.675781-.382813 109.25 163.726563 23.898438c-20.378907-18.820313-33.632813-45.265625-35.007813-74.589844zm0 0" fill="#f16c7a"/><path d="m225.398438 189.511719c-20.65625-19.078125-32.746094-44.835938-34.042969-72.527344-1.46875-30.988281 10.597656-60.925781 33.097656-82.136719.957031-.902344 1.214844-2.328125.632813-3.507812-.582032-1.179688-1.882813-1.851563-3.164063-1.636719l-66.753906 10.648437c-1.636719.261719-2.75 1.800782-2.492188 3.4375.261719 1.636719 1.804688 2.75 3.4375 2.488282l57.796875-9.21875c-19.625 21.808594-29.953125 50.554687-28.546875 80.210937 1.230469 26.246094 11.625 50.839844 29.484375 70.171875l-152.199218-22.214844.367187-104.097656 64.832031-10.339844c1.636719-.261718 2.753906-1.796874 2.492188-3.433593-.265625-1.636719-1.816406-2.746094-3.4375-2.492188l-67.351563 10.742188c-1.453125.230469-2.523437 1.480469-2.527343 2.953125l-.386719 109.246094c-.003907 1.492187 1.089843 2.765624 2.566406 2.980468l163.726563 23.898438c.144531.019531.292968.03125.4375.03125 1.140624 0 2.203124-.652344 2.703124-1.707032.570313-1.1875.296876-2.605468-.671874-3.496093zm0 0" fill="#3a312a"/><path d="m3.59375 24.410156-.589844 172.890625 56.640625-29.476562.375-109.25zm0 0" fill="#f16c7a"/><path d="m61.574219 56.007812-56.425781-34.164062c-.929688-.558594-2.082032-.578125-3.023438-.050781-.945312.53125-1.527344 1.527343-1.53125 2.609375l-.59375 172.886718c-.00390625 1.050782.542969 2.027344 1.441406 2.574219.476563.292969 1.019532.4375 1.558594.4375.472656 0 .949219-.113281 1.382812-.339843l56.644532-29.472657c.988281-.515625 1.609375-1.539062 1.613281-2.652343l.378906-109.25c.003907-1.054688-.546875-2.03125-1.445312-2.578126zm-4.925781 109.992188-50.628907 26.347656.554688-162.625 50.441406 30.539063zm0 0" fill="#3a312a"/><path d="m422.789062 54.398438-37.5-6.878907c11.980469 16.417969 19.421876 36.339844 20.441407 57.820313 1.300781 27.277344-7.582031 52.4375-23.160157 72.039062l39.121094-6c15.578125-2.398437 27.097656-15.78125 27.136719-31.539062l.203125-53.820313c.039062-15.5-11-28.820312-26.242188-31.621093zm0 0" fill="#f16c7a"/><path d="m423.328125 51.445312-37.5-6.878906c-1.210937-.222656-2.425781.316406-3.082031 1.355469-.648438 1.039063-.605469 2.371094.121094 3.363281 12.035156 16.496094 18.902343 35.925782 19.867187 56.195313 1.207031 25.375-6.785156 50.246093-22.511719 70.03125-.769531.964843-.867187 2.304687-.25 3.375.542969.933593 1.539063 1.492187 2.597656 1.492187.148438 0 .300782-.011718.457032-.035156l39.121094-6c17.15625-2.644531 29.640624-17.152344 29.683593-34.496094l.203125-53.820312c.035156-16.972656-12.03125-31.515625-28.707031-34.582032zm22.5 88.386719c-.035156 14.371094-10.378906 26.390625-24.59375 28.582031l-31.917969 4.894532c13.710938-19.855469 20.570313-43.765625 19.40625-68.113282-.902344-19.023437-6.722656-37.355468-16.917968-53.429687l30.441406 5.582031c13.816406 2.542969 23.816406 14.59375 23.785156 28.664063zm0 0" fill="#3a312a"/><path d="m228.96875 254.425781c-4.898438-.015625-8.878906 3.9375-8.898438 8.835938l-.144531 42.921875c-.015625 4.898437 3.941407 8.882812 8.835938 8.898437l29.875.101563.210937-60.65625zm0 0" fill="#d7e057"/><path d="m260.972656 252.414062c-.558594-.566406-1.320312-.886718-2.117187-.886718l-29.878907-.101563h-.035156c-3.15625 0-6.125 1.222657-8.367187 3.445313-2.25 2.234375-3.492188 5.210937-3.503907 8.378906l-.144531 42.921875c-.011719 3.167969 1.210938 6.152344 3.449219 8.402344 2.230469 2.25 5.207031 3.492187 8.378906 3.503906l29.875.101563h.007813c1.652343 0 2.996093-1.335938 3-2.988282l.210937-60.65625c0-.792968-.3125-1.554687-.875-2.121094zm-5.328125 59.757813-26.871093-.09375c-1.570313-.003906-3.042969-.621094-4.144532-1.730469-1.105468-1.113281-1.707031-2.589844-1.703125-4.15625l.144531-42.921875c.003907-1.566406.621094-3.035156 1.730469-4.140625 1.109375-1.097656 2.574219-1.703125 4.136719-1.703125h.019531l26.875.089844zm0 0" fill="#3a312a"/><path d="m271.875 407.558594-.101562 29.984375c-.015626 5.449219 4.382812 9.878906 9.828124 9.898437l34.652344.121094c5.445313.015625 9.875-4.382812 9.894532-9.828125l.101562-29.988281zm0 0" fill="#87796f"/><path d="m328.378906 405.628906c-.558594-.5625-1.320312-.882812-2.117187-.882812l-54.375-.1875h-.011719c-1.652344 0-2.992188 1.335937-3 2.988281l-.101562 29.988281c-.027344 7.089844 5.722656 12.878906 12.816406 12.90625l34.648437.117188h.046875c3.417969 0 6.632813-1.324219 9.0625-3.734375 2.4375-2.421875 3.785156-5.648438 3.792969-9.082031l.105469-29.988282c.007812-.796875-.304688-1.558594-.867188-2.125zm-5.234375 32.09375c-.003906 1.832032-.722656 3.550782-2.023437 4.84375-1.296875 1.285156-3.011719 1.992188-4.835938 1.992188-.007812 0-.027344 0-.023437 0l-34.648438-.117188c-3.785156-.015625-6.851562-3.105468-6.839843-6.886718l.09375-26.984376 48.371093.164063zm0 0" fill="#3a312a"/><path d="m145.511719 297.054688c-2.027344 23.121093-26.140625 26.691406-26.140625 26.691406 20.6875 1.042968 25.753906 28.203125 25.753906 28.203125.507812-19.351563 26.738281-28.3125 26.738281-28.3125-19.625-1.238281-26.351562-26.582031-26.351562-26.582031zm0 0" fill="#d7e057"/><path d="m172.054688 320.644531c-17.207032-1.085937-23.582032-24.128906-23.644532-24.363281-.378906-1.40625-1.71875-2.332031-3.160156-2.210938-1.449219.125-2.601562 1.273438-2.726562 2.722657-1.792969 20.425781-22.707032 23.851562-23.589844 23.984375-1.527344.226562-2.632813 1.570312-2.558594 3.113281s1.304688 2.773437 2.847656 2.851563c18.050782.914062 22.90625 25.515624 22.957032 25.765624.269531 1.425782 1.515624 2.445313 2.945312 2.445313.082031 0 .160156-.003906.242188-.011719 1.53125-.121094 2.71875-1.375 2.757812-2.910156.449219-17.015625 24.472656-25.46875 24.714844-25.550781 1.351562-.464844 2.191406-1.820313 2-3.238281-.195313-1.421876-1.359375-2.507813-2.785156-2.597657zm-27.203126 20.597657c-2.695312-6.269532-7.375-13.839844-15.117187-17.804688 5.875-2.789062 12.84375-7.78125 16.460937-16.488281 3.082032 6.152343 8.351563 13.789062 16.609376 17.5-6.023438 3.261719-13.875 8.765625-17.953126 16.792969zm0 0" fill="#3a312a"/><path d="m101.996094 330.867188c-1.433594 16.355468-18.488282 18.878906-18.488282 18.878906 14.632813.742187 18.214844 19.949218 18.214844 19.949218.359375-13.6875 18.914063-20.023437 18.914063-20.023437-13.878907-.878906-18.640625-18.804687-18.640625-18.804687zm0 0" fill="#d7e057"/><path d="m120.824219 346.675781c-11.53125-.730469-15.886719-16.425781-15.929688-16.582031-.375-1.40625-1.695312-2.347656-3.15625-2.214844-1.453125.128906-2.605469 1.277344-2.730469 2.726563-1.207031 13.738281-15.351562 16.082031-15.941406 16.171875-1.527344.226562-2.628906 1.570312-2.554687 3.113281s1.300781 2.773437 2.84375 2.851563c12.070312.613281 15.386719 17.34375 15.417969 17.507812.269531 1.429688 1.515624 2.449219 2.949218 2.449219.078125 0 .15625-.003907.238282-.011719 1.53125-.121094 2.722656-1.375 2.761718-2.910156.300782-11.417969 16.722656-17.207032 16.886719-17.265625 1.351563-.460938 2.191406-1.816407 2-3.238281-.1875-1.417969-1.355469-2.507813-2.785156-2.597657zm-19.214844 13.523438c-1.832031-3.777344-4.652344-7.910157-8.855469-10.589844 3.714844-2.066406 7.410156-5.234375 9.773438-9.796875 2.101562 3.753906 5.28125 7.929688 9.847656 10.480469-3.707031 2.191406-7.996094 5.453125-10.765625 9.90625zm0 0" fill="#3a312a"/><path d="m102.179688 277.554688c-1.4375 16.355468-18.492188 18.878906-18.492188 18.878906 14.632812.738281 18.214844 19.949218 18.214844 19.949218.363281-13.6875 18.914062-20.027343 18.914062-20.027343-13.878906-.875-18.636718-18.800781-18.636718-18.800781zm0 0" fill="#d7e057"/><path d="m121.007812 293.363281c-11.488281-.726562-15.859374-16.3125-15.933593-16.582031-.371094-1.40625-1.683594-2.347656-3.152344-2.214844-1.453125.125-2.605469 1.277344-2.730469 2.726563-1.207031 13.734375-15.347656 16.078125-15.941406 16.171875-1.527344.222656-2.628906 1.570312-2.554688 3.113281.074219 1.539063 1.300782 2.773437 2.84375 2.851563 12.066407.609374 15.386719 17.339843 15.417969 17.503906.265625 1.429687 1.515625 2.453125 2.945313 2.453125.078125 0 .160156-.007813.238281-.011719 1.535156-.121094 2.722656-1.375 2.761719-2.914062.300781-11.414063 16.726562-17.207032 16.886718-17.261719 1.355469-.460938 2.195313-1.820313 2.003907-3.238281-.191407-1.421876-1.355469-2.507813-2.785157-2.597657zm-19.214843 13.523438c-1.835938-3.777344-4.652344-7.910157-8.859375-10.589844 3.71875-2.066406 7.414062-5.234375 9.777344-9.796875 2.097656 3.753906 5.28125 7.925781 9.84375 10.480469-3.707032 2.1875-7.996094 5.449219-10.761719 9.90625zm0 0" fill="#3a312a"/><path d="m405.730469 106.535156c-2.609375-55.292968-47.375-100.371094-102.652344-103.359375-64.554687-3.496093-117.777344 49.363281-114.726563 113.941407 2.613282 55.296874 47.382813 100.371093 102.65625 103.359374 64.554688 3.488282 117.773438-49.367187 114.722657-113.941406zm0 0" fill="#f16c7a"/><path d="m408.726562 106.394531c-2.667968-56.503906-49.003906-103.160156-105.488281-106.214843-31.582031-1.699219-62.59375 10.066406-84.992187 32.308593-22.394532 22.246094-34.382813 53.140625-32.886719 84.769531 2.667969 56.503907 49.007813 103.160157 105.488281 106.214844 2.019532.105469 4.035156.164063 6.042969.164063 29.492187 0 57.976563-11.652344 78.945313-32.476563 22.394531-22.246094 34.386718-53.140625 32.890624-84.765625zm-37.117187 80.511719c-21.199219 21.046875-50.542969 32.191406-80.4375 30.574219-53.449219-2.890625-97.292969-47.039063-99.820313-100.503907-1.414062-29.933593 9.929688-59.179687 31.125-80.230468 19.84375-19.707032 46.800782-30.730469 74.714844-30.730469 1.902344 0 3.816406.050781 5.726563.15625 53.449219 2.890625 97.292969 47.039063 99.816406 100.503906 1.414063 29.933594-9.929687 59.175781-31.125 80.230469zm0 0" fill="#3a312a"/><path d="m301.1875 37.054688c-41.289062-2.285157-76.613281 29.332031-78.902344 70.621093-2.285156 41.289063 29.332032 76.613281 70.621094 78.898438 41.289062 2.289062 76.613281-29.328125 78.898438-70.617188 2.289062-41.289062-29.328126-76.613281-70.617188-78.902343zm0 0" fill="#fce8cb"/><path d="m297.042969 33.953125c-42.9375 0-77.871094 34.933594-77.871094 77.871094 0 42.941406 34.933594 77.871093 77.871094 77.871093s77.875-34.933593 77.875-77.871093-34.9375-77.871094-77.875-77.871094zm0 149.742187c-39.625 0-71.871094-32.242187-71.871094-71.871093 0-39.628907 32.242187-71.871094 71.871094-71.871094 39.632812 0 71.875 32.242187 71.875 71.871094-.003907 39.628906-32.246094 71.871093-71.875 71.871093zm0 0" fill="#3a312a"/><path d="m297.222656 109.421875c-14.28125 0-25.855468 14.058594-25.855468 25.910156 0 11.855469 11.574218 13.921875 25.855468 13.921875s25.855469-2.066406 25.855469-13.921875-11.574219-25.910156-25.855469-25.910156zm0 0" fill="#87796f"/><path d="m297.222656 106.421875c-16.25 0-28.855468 15.539063-28.855468 28.910156 0 16.921875 19.488281 16.921875 28.855468 16.921875 9.367188 0 28.855469 0 28.855469-16.921875 0-13.371093-12.605469-28.910156-28.855469-28.910156zm0 39.832031c-18.96875 0-22.855468-4.367187-22.855468-10.921875 0-10.316406 10.542968-22.914062 22.855468-22.914062 12.308594 0 22.855469 12.597656 22.855469 22.914062 0 6.554688-3.886719 10.921875-22.855469 10.921875zm0 0" fill="#3a312a"/><path d="m297.222656 74.398438c-5.59375 0-10.125 5.816406-10.125 12.996093 0 7.175781 4.53125 12.996094 10.125 12.996094 5.589844 0 10.125-5.820313 10.125-12.996094 0-7.179687-4.535156-12.996093-10.125-12.996093zm0 0" fill="#87796f"/><path d="m297.222656 71.398438c-7.238281 0-13.125 7.175781-13.125 15.996093 0 8.816407 5.886719 15.996094 13.125 15.996094 7.238282 0 13.125-7.179687 13.125-15.996094 0-8.820312-5.886718-15.996093-13.125-15.996093zm0 25.988281c-3.863281 0-7.125-4.578125-7.125-9.996094s3.261719-9.996094 7.125-9.996094c3.863282 0 7.125 4.578125 7.125 9.996094s-3.261718 9.996094-7.125 9.996094zm0 0" fill="#3a312a"/><path d="m277.355469 92.953125c-3.351563-6.34375-10.082031-9.371094-15.027344-6.757813-4.941406 2.613282-6.234375 9.875-2.878906 16.21875 3.351562 6.34375 10.078125 9.371094 15.023437 6.761719 4.945313-2.613281 6.234375-9.875 2.882813-16.222656zm0 0" fill="#87796f"/><path d="m280.007812 91.554688c-4.121093-7.796876-12.671874-11.394532-19.082031-8.011719-6.394531 3.378906-8.25 12.476562-4.132812 20.273437 3.070312 5.804688 8.597656 9.28125 13.867187 9.28125 1.804688 0 3.578125-.40625 5.214844-1.269531 6.394531-3.382813 8.25-12.476563 4.132812-20.273437zm-6.9375 14.96875c-3.421874 1.800781-8.441406-.71875-10.972656-5.507813s-1.785156-10.363281 1.628906-12.167969c.753907-.394531 1.582032-.582031 2.449219-.582031 3.058594 0 6.550781 2.355469 8.527344 6.089844 2.527344 4.792969 1.78125 10.363281-1.632813 12.167969zm0 0" fill="#3a312a"/><path d="m256.515625 112.269531c-5.714844-4.34375-13.089844-4.253906-16.476563.199219-3.382812 4.453125-1.492187 11.582031 4.222657 15.925781 5.710937 4.34375 13.089843 4.253907 16.472656-.199219 3.382813-4.453124 1.492187-11.585937-4.21875-15.925781zm0 0" fill="#87796f"/><path d="m264.9375 119.421875c-.96875-3.652344-3.316406-7.042969-6.609375-9.542969-7.023437-5.335937-16.292969-4.988281-20.679687.773438-4.375 5.761718-2.222657 14.792968 4.796874 20.128906 3.238282 2.460938 7.058594 3.808594 10.773438 3.808594h.1875c4.054688-.050782 7.507812-1.675782 9.714844-4.582032 2.207031-2.90625 2.851562-6.664062 1.816406-10.585937zm-6.59375 6.957031c-1.0625 1.398438-2.84375 2.1875-5.007812 2.210938-2.40625-.019532-5.023438-.886719-7.261719-2.585938-4.3125-3.277344-5.980469-8.644531-3.644531-11.722656 1.117187-1.46875 2.988281-2.199219 5.105468-2.199219 2.3125 0 4.914063.867188 7.164063 2.574219 2.234375 1.699219 3.808593 3.9375 4.4375 6.300781.554687 2.097657.269531 4.019531-.792969 5.421875zm0 0" fill="#3a312a"/><path d="m332.273438 86.195312c-4.945313-2.613281-11.671876.414063-15.027344 6.757813-3.351563 6.347656-2.058594 13.609375 2.886718 16.222656 4.945313 2.609375 11.671876-.414062 15.023438-6.761719 3.351562-6.34375 2.058594-13.605468-2.882812-16.21875zm0 0" fill="#87796f"/><path d="m333.671875 83.542969c-6.394531-3.386719-14.957031.210937-19.078125 8.011719-4.121094 7.796874-2.265625 16.890624 4.132812 20.273437 1.632813.863281 3.410157 1.269531 5.214844 1.269531 5.265625 0 10.792969-3.476562 13.863282-9.28125 4.121093-7.796875 2.265624-16.894531-4.132813-20.273437zm-1.167969 17.472656c-2.535156 4.792969-7.5625 7.316406-10.972656 5.507813-3.414062-1.804688-4.160156-7.375-1.632812-12.167969 2.535156-4.789063 7.566406-7.308594 10.972656-5.507813 3.414062 1.804688 4.160156 7.378906 1.632812 12.167969zm0 0" fill="#3a312a"/><path d="m354.046875 112.46875c-3.386719-4.453125-10.761719-4.542969-16.476563-.199219-5.710937 4.339844-7.601562 11.472657-4.21875 15.921875 3.382813 4.453125 10.761719 4.542969 16.472657.203125 5.714843-4.34375 7.605469-11.472656 4.222656-15.925781zm0 0" fill="#87796f"/><path d="m356.433594 110.652344c-2.207032-2.90625-5.65625-4.535156-9.714844-4.582032-.058594 0-.121094 0-.183594 0-3.71875 0-7.539062 1.351563-10.777344 3.808594-3.292968 2.503906-5.640624 5.890625-6.609374 9.542969-1.039063 3.921875-.390626 7.683594 1.8125 10.589844 2.300781 3.023437 5.953124 4.558593 9.917968 4.558593 3.585938 0 7.429688-1.253906 10.761719-3.789062 7.023437-5.335938 9.171875-14.367188 4.792969-20.128906zm-8.421875 15.351562c-4.3125 3.273438-9.933594 3.449219-12.273438.375-1.0625-1.398437-1.34375-3.324218-.789062-5.421875.625-2.363281 2.203125-4.601562 4.4375-6.296875 2.203125-1.671875 4.730469-2.589844 7.144531-2.589844h.113281c2.167969.027344 3.949219.8125 5.011719 2.210938 2.335938 3.078125.667969 8.445312-3.644531 11.722656zm0 0" fill="#3a312a"/><path d="m297.042969 39.988281c-5.199219 0-10.28125.566407-15.175781 1.621094 22.703124 4.894531 41.441406 20.558594 50.585937 41.363281.425781.140625.832031.320313 1.234375.542969 6.316406 3.320313 8.214844 12.203125 4.351562 19.933594.179688 1.539062.304688 3.117187.382813 4.695312 6.554687-3.480469 14.1875-2.589843 18.03125 2.484375 4.390625 5.789063 2.246094 14.832032-4.796875 20.175782-3.339844 2.550781-7.183594 3.804687-10.785156 3.804687-2.023438 0-3.945313-.40625-5.667969-1.195313-7.710937 24.363282-28.066406 43.164063-53.339844 48.625 4.898438 1.054688 9.976563 1.621094 15.175781 1.621094 39.601563 0 71.835938-32.238281 71.835938-71.835937.003906-39.597657-32.230469-71.835938-71.832031-71.835938zm0 0" fill="#decaad"/><path d="m372.628906 194.199219c-.699218.621093-1.398437 1.238281-2.097656 1.859375-.78125.679687-1.5625 1.359375-2.359375 2.019531-.480469.402344-.960937.78125-1.460937 1.160156-1.0625.859375-2.121094 1.699219-3.222657 2.5-.199219.140625-.378906.28125-.578125.421875-7.179687 5.238282-14.921875 9.578125-23.058594 12.9375l-29.421874 181.261719c-.71875 4.417969-4.160157 7.679687-8.480469 8.300781l28.582031.097656c4.957031-.019531 9.097656-3.5 9.898438-8.398437l32.921874-202.800781c-.242187.21875-.480468.421875-.722656.640625zm0 0" fill="#d34e5c"/><path d="m293.230469 410.738281-.082031 26.980469c0 1.839844-.71875 3.558594-2.019532 4.839844-1.019531 1.019531-2.277344 1.660156-3.660156 1.898437l28.800781.101563h.019531c1.820313 0 3.539063-.699219 4.839844-2 1.300782-1.28125 2.019532-3 2.019532-4.839844l.082031-26.980469zm0 0" fill="#695b51"/></svg>