<svg height="455pt" viewBox="0 -2 455.37994 455" width="455pt" xmlns="http://www.w3.org/2000/svg"><path d="m147.871094 280.203125c-30.414063-55.328125-110.511719-69.707031-121.214844-63.824219-8.753906 4.8125-41.480469 81.214844-11.066406 136.542969 30.417968 55.328125 72.386718 61.535156 108.917968 41.453125 36.527344-20.078125 53.78125-58.839844 23.363282-114.171875zm0 0" fill="#87796f"/><path d="m150.503906 278.761719c-30.445312-55.378907-112.234375-72.195313-125.289062-65.011719-10.335938 5.683594-43.207032 84.300781-12.253906 140.617188 14.746093 26.820312 32.878906 43.785156 53.894531 50.421874 6.445312 2.039063 13.105469 3.046876 19.882812 3.046876 12.847657 0 26.128907-3.636719 39.214844-10.832032 19.992187-10.988281 33.210937-26.800781 38.242187-45.726562 5.65625-21.300782 1.046876-45.699219-13.691406-72.515625zm-27.445312 112.984375c-18.515625 10.179687-37.328125 12.714844-54.402344 7.320312-19.492188-6.160156-36.464844-22.171875-50.4375-47.589844-29.59375-53.835937 2.785156-128.496093 9.882812-132.46875 1.199219-.65625 3.472657-1.007812 6.605469-1.007812 21.800781 0 84.847657 16.921875 110.535157 63.652344 26.265624 47.777344 18.183593 87.90625-22.183594 110.09375zm0 0" fill="#3a312a"/><path d="m116.269531 291.207031c-17.121093-31.140625-62.203125-39.234375-68.222656-35.921875-4.925781 2.707032-23.347656 45.707032-6.230469 76.851563 17.121094 31.144531 40.742188 34.636719 61.300782 23.332031 20.5625-11.300781 30.273437-33.117188 13.152343-64.261719zm0 0" fill="#f16c7a"/><path d="m118.898438 289.765625c-17.867188-32.503906-64.492188-41.40625-72.296876-37.109375-6.1875 3.402344-25.597656 47.839844-7.414062 80.925781 11.09375 20.179688 26.261719 30.765625 42.851562 30.765625 7.308594 0 14.894532-2.054687 22.523438-6.25 11.574219-6.363281 19.238281-15.542968 22.160156-26.546875 3.273438-12.328125.644532-26.386719-7.824218-41.785156zm2.027343 40.246094c-2.492187 9.378906-9.152343 17.277343-19.253906 22.828125-21.984375 12.085937-42.84375 4.015625-57.226563-22.148438-16.15625-29.386718 1.050782-69.671875 5.027344-72.769531.460938-.214844 1.363282-.335937 2.628906-.335937 10.609376 0 46.78125 8.222656 61.539063 35.066406 7.699219 14.003906 10.148437 26.570312 7.285156 37.359375zm0 0" fill="#3a312a"/><path d="m428.601562 216.378906c-10.699218-5.882812-90.796874 8.496094-121.214843 63.824219-30.414063 55.332031-13.160157 94.09375 23.367187 114.171875 36.527344 20.082031 78.5 13.875 108.917969-41.453125 30.414063-55.328125-2.316406-131.730469-11.070313-136.542969zm0 0" fill="#87796f"/><path d="m451.761719 265.101562c-5.386719-26.1875-15.769531-48.082031-21.714844-51.351562-6.625-3.640625-30.601563-.976562-55.746094 8.789062-22.414062 8.707032-52.671875 25.527344-69.539062 56.21875-14.742188 26.820313-19.351563 51.21875-13.695313 72.519532 5.027344 18.925781 18.25 34.738281 38.242188 45.726562 13.089844 7.195313 26.367187 10.832032 39.214844 10.832032 6.777343 0 13.4375-1.011719 19.882812-3.046876 21.015625-6.636718 39.148438-23.601562 53.890625-50.421874 16.738281-30.441407 14.386719-65.347657 9.464844-89.265626zm-14.722657 86.375c-13.972656 25.421876-30.945312 41.433594-50.4375 47.589844-17.074218 5.390625-35.882812 2.863282-54.402343-7.320312-40.363281-22.1875-48.449219-62.316406-22.183594-110.097656 16.847656-30.644532 48.871094-46.683594 66.457031-53.515626 18.949219-7.359374 35.601563-9.980468 44.480469-9.980468 3.078125 0 5.21875.316406 6.203125.855468 7.101562 3.972657 39.476562 78.632813 9.882812 132.46875zm0 0" fill="#3a312a"/><path d="m407.214844 255.285156c-6.023438-3.3125-51.105469 4.78125-68.226563 35.921875-17.117187 31.144531-7.40625 52.957031 13.152344 64.261719 20.5625 11.300781 44.183594 7.808594 61.304687-23.332031 17.117188-31.144531-1.304687-74.144531-6.230468-76.851563zm0 0" fill="#f16c7a"/><path d="m408.660156 252.65625c-7.808594-4.296875-54.433594 4.601562-72.296875 37.109375-8.46875 15.398437-11.097656 29.457031-7.824219 41.785156 2.921876 11.003907 10.585938 20.183594 22.160157 26.546875 7.5625 4.15625 15.25 6.261719 22.699219 6.261719 3.949218 0 7.828124-.589844 11.589843-1.78125 12.160157-3.839844 22.621094-13.597656 31.085938-28.996094 18.1875-33.089843-1.226563-77.523437-7.414063-80.925781zm2.152344 78.035156c-7.695312 14.003906-16.996094 22.804688-27.632812 26.167969-9.261719 2.925781-19.488282 1.53125-29.589844-4.019531-10.105469-5.550782-16.761719-13.449219-19.253906-22.828125-2.867188-10.789063-.414063-23.355469 7.285156-37.359375 16.519531-30.050782 59.871094-36.765625 64.046875-34.800782 4.09375 3.167969 21.300781 43.449219 5.144531 72.839844zm0 0" fill="#3a312a"/><path d="m406.308594 413.335938c-18.878906-62.816407-64.738282-112.359376-122.660156-132.316407-18.039063-6.222656-37.238282-9.582031-57.160157-9.582031-19.21875 0-37.777343 3.101562-55.257812 8.960938-58.78125 19.5-105.460938 69.417968-124.558594 132.980468-3.460937 11.457032-6.023437 23.339844-7.582031 35.558594h374.800781c-1.5625-12.238281-4.101563-24.140625-7.582031-35.601562zm0 0" fill="#fce8cb"/><path d="m416.867188 448.558594c-1.574219-12.335938-4.160157-24.480469-7.683594-36.082032-19.179688-63.824218-65.742188-114.023437-124.554688-134.292968-18.75-6.464844-38.3125-9.742188-58.140625-9.742188-19.257812 0-38.171875 3.066406-56.203125 9.109375-59.765625 19.828125-107.050781 70.28125-126.488281 134.960938-3.542969 11.738281-6.132813 23.867187-7.683594 36.046875-.109375.855468.152344 1.71875.722657 2.363281.570312.644531 1.390624 1.019531 2.253906 1.019531h175.902344c1.660156 0 3-1.34375 3-3 0-1.660156-1.339844-3-3-3h-172.46875c1.542968-10.714844 3.898437-21.359375 7.019531-31.699218 18.875-62.8125 64.71875-111.785157 122.640625-131 17.425781-5.839844 35.695312-8.800782 54.304687-8.800782 19.164063 0 38.066407 3.167969 56.183594 9.414063 56.992187 19.640625 102.136719 68.367187 120.765625 130.355469 3.109375 10.230468 5.464844 20.890624 7.019531 31.730468h-167.195312c-1.65625 0-3 1.339844-3 3 0 1.65625 1.34375 3 3 3h170.625c.863281 0 1.683593-.371094 2.253906-1.019531.570313-.644531.832031-1.507813.726563-2.363281zm0 0" fill="#3a312a"/><path d="m171.230469 280.398438c-58.78125 19.5-105.460938 69.417968-124.558594 132.980468-3.460937 11.457032-6.023437 23.339844-7.582031 35.558594h156.339844c3.640624-16.71875 5.582031-34.378906 5.582031-52.660156 0-43.660156-11.101563-83.878906-29.78125-115.878906zm0 0" fill="#87796f"/><path d="m173.820312 278.886719c-.714843-1.226563-2.1875-1.78125-3.535156-1.335938-59.765625 19.828125-107.050781 70.28125-126.488281 134.960938-3.542969 11.738281-6.132813 23.867187-7.683594 36.046875-.109375.855468.152344 1.71875.722657 2.363281.570312.644531 1.390624 1.019531 2.253906 1.019531h156.339844c1.410156 0 2.628906-.984375 2.929687-2.363281 3.75-17.214844 5.648437-35.148437 5.648437-53.296875.003907-42.96875-10.4375-83.5625-30.1875-117.394531zm19.179688 167.054687h-150.476562c1.542968-10.714844 3.898437-21.359375 7.019531-31.699218 18.621093-61.972657 63.5-110.472657 120.316406-130.207032 18.421875 32.488282 28.148437 71.234375 28.148437 112.246094.003907 16.894531-1.683593 33.585938-5.007812 49.660156zm0 0" fill="#3a312a"/><path d="m406.308594 413.335938c-18.878906-62.816407-64.738282-112.359376-122.660156-132.316407-18.417969 31.917969-29.398438 71.878907-29.398438 115.257813 0 18.28125 1.941406 35.941406 5.578125 52.660156h154.0625c-1.5625-12.238281-4.101563-24.140625-7.582031-35.601562zm0 0" fill="#87796f"/><path d="m416.867188 448.558594c-1.574219-12.335938-4.160157-24.480469-7.683594-36.082032-19.179688-63.824218-65.742188-114.023437-124.558594-134.292968-1.347656-.46875-2.855469.089844-3.574219 1.335937-19.496093 33.785157-29.800781 74.160157-29.800781 116.757813 0 18.140625 1.898438 36.074218 5.648438 53.296875.300781 1.382812 1.523437 2.363281 2.929687 2.363281h154.0625c.863281 0 1.679687-.371094 2.25-1.019531.570313-.640625.832031-1.503907.726563-2.359375zm-154.609376-2.617188c-3.324218-16.082031-5.011718-32.777344-5.011718-49.660156 0-40.640625 9.597656-79.167969 27.769531-111.597656 55.886719 20.15625 100.046875 68.390625 118.421875 129.527344 3.109375 10.230468 5.464844 20.890624 7.019531 31.730468zm0 0" fill="#3a312a"/><path d="m406.308594 413.335938c-18.878906-62.816407-64.738282-112.359376-122.660156-132.316407-18.417969 31.917969-29.398438 71.878907-29.398438 115.257813 0 18.28125 1.941406 35.941406 5.578125 52.660156h154.0625c-1.5625-12.238281-4.101563-24.140625-7.582031-35.601562zm0 0" fill="#87796f"/><path d="m416.867188 448.558594c-1.574219-12.335938-4.160157-24.480469-7.683594-36.082032-19.179688-63.824218-65.742188-114.023437-124.558594-134.292968-1.347656-.46875-2.855469.089844-3.574219 1.335937-19.496093 33.785157-29.800781 74.160157-29.800781 116.757813 0 18.140625 1.898438 36.074218 5.648438 53.296875.300781 1.382812 1.523437 2.363281 2.929687 2.363281h154.0625c.863281 0 1.679687-.371094 2.25-1.019531.570313-.640625.832031-1.503907.726563-2.359375zm-154.609376-2.617188c-3.324218-16.082031-5.011718-32.777344-5.011718-49.660156 0-40.640625 9.597656-79.167969 27.769531-111.597656 55.886719 20.15625 100.046875 68.390625 118.421875 129.527344 3.109375 10.230468 5.464844 20.890624 7.019531 31.730468zm0 0" fill="#3a312a"/><path d="m397.71875 22.542969c-1.945312 23.128906-26.046875 26.777343-26.046875 26.777343 20.691406.976563 25.847656 28.121094 25.847656 28.121094.441407-19.355468 26.640625-28.40625 26.640625-28.40625-19.625-1.171875-26.441406-26.492187-26.441406-26.492187zm0 0" fill="#d7e057"/><path d="m424.34375 46.039062c-17.210938-1.027343-23.664062-24.046874-23.726562-24.277343-.382813-1.40625-1.707032-2.320313-3.167969-2.207031-1.453125.132812-2.597657 1.285156-2.71875 2.734374-1.71875 20.429688-22.625 23.925782-23.507813 24.066407-1.527344.226562-2.628906 1.578125-2.546875 3.117187.082031 1.542969 1.3125 2.769532 2.855469 2.84375 18.054688.847656 22.996094 25.433594 23.042969 25.683594.277343 1.421875 1.519531 2.433594 2.945312 2.433594.085938 0 .167969-.003906.253907-.007813 1.527343-.128906 2.710937-1.386719 2.75-2.921875.386718-17.015625 24.378906-25.550781 24.625-25.636718 1.351562-.46875 2.183593-1.828126 1.988281-3.242188-.199219-1.417969-1.367188-2.5-2.792969-2.585938zm-27.132812 20.695313c-2.714844-6.261719-7.417969-13.816406-15.175782-17.753906 5.863282-2.8125 12.820313-7.828125 16.40625-16.546875 3.101563 6.140625 8.398438 13.761718 16.667969 17.445312-6.015625 3.277344-13.847656 8.8125-17.898437 16.855469zm0 0" fill="#3a312a"/><path d="m354.320312 56.503906c-1.375 16.359375-18.421874 18.941406-18.421874 18.941406 14.636718.6875 18.285156 19.886719 18.285156 19.886719.308594-13.6875 18.84375-20.089843 18.84375-20.089843-13.882813-.832032-18.707032-18.738282-18.707032-18.738282zm0 0" fill="#d7e057"/><path d="m373.207031 72.246094c-11.535156-.6875-15.945312-16.367188-15.992187-16.527344-.378906-1.402344-1.71875-2.320312-3.160156-2.203125-1.453126.128906-2.601563 1.285156-2.722657 2.734375-1.15625 13.742188-15.292969 16.136719-15.882812 16.230469-1.523438.230469-2.625 1.578125-2.546875 3.121093.082031 1.539063 1.316406 2.769532 2.859375 2.84375 12.066406.566407 15.445312 17.285157 15.476562 17.449219.273438 1.421875 1.519531 2.4375 2.945313 2.4375.082031 0 .167968-.003906.25-.007812 1.53125-.125 2.714844-1.386719 2.753906-2.921875.257812-11.417969 16.660156-17.269532 16.824219-17.324219 1.351562-.46875 2.183593-1.828125 1.992187-3.246094-.199218-1.417969-1.371094-2.5-2.796875-2.585937zm-19.171875 13.589844c-1.847656-3.769532-4.679687-7.890626-8.894531-10.558594 3.710937-2.082032 7.394531-5.257813 9.742187-9.832032 2.113282 3.746094 5.308594 7.910157 9.882813 10.445313-3.699219 2.207031-7.976563 5.484375-10.730469 9.945313zm0 0" fill="#3a312a"/><path d="m354.320312 3.191406c-1.375 16.355469-18.421874 18.941406-18.421874 18.941406 14.636718.6875 18.285156 19.886719 18.285156 19.886719.308594-13.691406 18.84375-20.089843 18.84375-20.089843-13.882813-.832032-18.707032-18.738282-18.707032-18.738282zm0 0" fill="#d7e057"/><path d="m373.207031 18.933594c-11.535156-.691406-15.945312-16.371094-15.992187-16.53125-.378906-1.402344-1.71875-2.3203128-3.160156-2.203125-1.453126.128906-2.601563 1.285156-2.722657 2.738281-1.15625 13.742188-15.292969 16.132812-15.882812 16.226562-1.523438.230469-2.625 1.578126-2.546875 3.121094.082031 1.539063 1.316406 2.769532 2.859375 2.84375 12.066406.566406 15.445312 17.285156 15.476562 17.449219.273438 1.425781 1.519531 2.441406 2.945313 2.441406.082031 0 .167968 0 .25-.007812 1.53125-.128907 2.714844-1.390625 2.753906-2.925781.257812-11.417969 16.660156-17.265626 16.824219-17.320313 1.351562-.46875 2.183593-1.828125 1.992187-3.246094-.199218-1.417969-1.371094-2.5-2.796875-2.585937zm-19.171875 13.589844c-1.847656-3.773438-4.679687-7.894532-8.894531-10.5625 3.710937-2.082032 7.394531-5.257813 9.742187-9.832032 2.113282 3.75 5.308594 7.910156 9.882813 10.449219-3.699219 2.203125-7.976563 5.480469-10.730469 9.945313zm0 0" fill="#3a312a"/><path d="m351.710938 380.945312c-8.242188-1.640624-15.742188-5.320312-21.980469-10.5 0 0 0 0-.019531 0-17.582032 22.796876-45.140626 37.5-76.082032 37.5-52.9375 0-96-43.0625-96-96v-100.621093c-3.9375.417969-7.957031.621093-12 .621093-4.039062 0-8.058594-.203124-12-.621093v100.621093c0 66.160157 53.839844 120 120 120 40.5 0 76.359375-20.160156 98.101563-50.980468zm0 0" fill="#8ac6dd"/><path d="m353.882812 378.875c-.425781-.449219-.980468-.753906-1.585937-.875-7.542969-1.5-14.683594-4.914062-20.652344-9.867188-1.253906-1.035156-3.316406-.8125-4.308593.476563-17.804688 23.09375-44.667969 36.335937-73.707032 36.335937-51.277344 0-93-41.722656-93-93v-100.621093c0-.851563-.359375-1.664063-.992187-2.230469-.632813-.570312-1.472657-.84375-2.324219-.75-7.511719.796875-15.851562.796875-23.363281 0-.847657-.089844-1.691407.183594-2.324219.75s-.996094 1.378906-.996094 2.230469v100.621093c0 67.820313 55.179688 123 123 123 39.882813 0 77.472656-19.535156 100.550782-52.25.828124-1.171874.691406-2.785156-.296876-3.820312zm-100.253906 50.070312c-64.511718 0-117-52.488281-117-117v-97.335937c5.878906.445313 12.128906.445313 18 0v97.335937c0 54.585938 44.414063 99 99 99 29.910156 0 57.652344-13.199218 76.585938-36.316406 4.972656 3.664063 10.5625 6.433594 16.453125 8.164063-22.117188 28.980469-56.570313 46.152343-93.039063 46.152343zm0 0" fill="#3a312a"/><path d="m249.628906 66.597656c-4.738281 0-9.117187-1.640625-12.539062-4.398437v33.199219c0 50.4375-41.019532 91.480468-91.460938 91.480468-50.4375 0-91.457031-41.042968-91.457031-91.480468v-33.199219c-3.421875 2.757812-7.800781 4.398437-12.542969 4.398437-4.738281 0-9.117187-1.640625-12.539062-4.398437v19.636719l1.0625 29.066406c7.609375 56.953125 56.476562 101.035156 115.476562 101.035156 64.261719 0 116.542969-52.28125 116.542969-116.539062v-33.199219c-3.421875 2.757812-7.800781 4.398437-12.542969 4.398437zm0 0" fill="#8ac6dd"/><path d="m263.460938 59.492188c-1.039063-.5-2.277344-.355469-3.175782.371093-2.984375 2.410157-6.769531 3.734375-10.65625 3.734375-3.886718 0-7.671875-1.324218-10.652344-3.734375-.902343-.726562-2.140624-.871093-3.179687-.371093-1.039063.496093-1.707031 1.550781-1.707031 2.707031v33.199219c0 48.789062-39.683594 88.480468-88.460938 88.480468s-88.457031-39.691406-88.457031-88.480468v-33.199219c0-1.15625-.664063-2.210938-1.707031-2.707031-1.042969-.496094-2.277344-.355469-3.179688.371093-2.984375 2.410157-6.765625 3.734375-10.65625 3.734375-3.886718 0-7.671875-1.324218-10.65625-3.734375-.898437-.726562-2.132812-.867187-3.175781-.371093-1.042969.496093-1.707031 1.550781-1.707031 2.707031v19.636719c0 1.65625 1.34375 3 3 3s3-1.34375 3-3v-14.296876c5.941406 2.691407 13.136718 2.691407 19.082031 0v27.859376c0 52.09375 42.371094 94.480468 94.457031 94.480468 52.085938 0 94.460938-42.386718 94.460938-94.480468v-27.859376c5.941406 2.6875 13.136718 2.6875 19.078125 0v27.859376c0 62.605468-50.933594 113.539062-113.539063 113.539062-56.640625 0-105.003906-42.316406-112.503906-98.433594-.21875-1.640625-1.742188-2.785156-3.367188-2.574218-1.644531.21875-2.796874 1.726562-2.578124 3.371093 7.894531 59.082031 58.816406 103.640625 118.449218 103.640625 65.914063 0 119.539063-53.628906 119.539063-119.542968v-33.199219c0-1.15625-.660157-2.210938-1.707031-2.707031zm0 0" fill="#3a312a"/><path d="m41.628906 3.9375c-11.070312 0-20.046875 8.976562-20.046875 20.046875v22.554687c0 11.074219 8.976563 20.046876 20.046875 20.046876 11.074219 0 20.050782-8.972657 20.050782-20.046876v-22.554687c0-11.070313-8.976563-20.046875-20.050782-20.046875zm0 0" fill="#87796f"/><path d="m41.628906.941406c-12.707031 0-23.046875 10.335938-23.046875 23.046875v22.554688c0 12.707031 10.339844 23.046875 23.046875 23.046875 12.710938 0 23.050782-10.339844 23.050782-23.046875v-22.558594c0-12.707031-10.339844-23.042969-23.050782-23.042969zm17.050782 45.597656c0 9.402344-7.648438 17.046876-17.050782 17.046876-9.398437 0-17.046875-7.644532-17.046875-17.046876v-22.554687c0-9.398437 7.648438-17.046875 17.046875-17.046875 9.402344 0 17.050782 7.648438 17.050782 17.046875zm0 0" fill="#3a312a"/><path d="m249.628906 3.9375c-11.070312 0-20.046875 8.976562-20.046875 20.046875v22.554687c0 11.074219 8.976563 20.046876 20.046875 20.046876 11.074219 0 20.050782-8.972657 20.050782-20.046876v-22.554687c0-11.070313-8.976563-20.046875-20.050782-20.046875zm0 0" fill="#87796f"/><path d="m249.628906.941406c-12.707031 0-23.046875 10.335938-23.046875 23.046875v22.554688c0 12.707031 10.339844 23.046875 23.046875 23.046875 12.710938 0 23.050782-10.339844 23.050782-23.046875v-22.558594c0-12.707031-10.339844-23.042969-23.050782-23.042969zm17.050782 45.597656c0 9.402344-7.648438 17.046876-17.050782 17.046876-9.398437 0-17.046875-7.644532-17.046875-17.046876v-22.554687c0-9.398437 7.648438-17.046875 17.046875-17.046875 9.402344 0 17.050782 7.648438 17.050782 17.046875zm0 0" fill="#3a312a"/><path d="m411.628906 331.9375c0 27.613281-22.382812 50-50 50-27.613281 0-50-22.386719-50-50s22.386719-50 50-50c27.617188 0 50 22.386719 50 50zm0 0" fill="#8ac6dd"/><path d="m361.628906 278.941406c-29.222656 0-53 23.773438-53 53 0 29.222656 23.777344 53 53 53 29.226563 0 53-23.777344 53-53 0-29.226562-23.773437-53-53-53zm0 100c-25.914062 0-47-21.085937-47-47 0-25.917968 21.085938-47 47-47 25.917969 0 47 21.082032 47 47 0 25.914063-21.082031 47-47 47zm0 0" fill="#3a312a"/><path d="m389.328125 325.359375c-3.613281-15.296875-18.941406-24.769531-34.242187-21.15625-15.296876 3.613281-24.769532 18.941406-21.15625 34.238281 3.609374 15.296875 18.941406 24.773438 34.238281 21.160156 15.296875-3.613281 24.769531-18.941406 21.160156-34.242187zm0 0" fill="#d7e057"/><path d="m361.628906 300.476562c-17.347656 0-31.460937 14.113282-31.460937 31.460938s14.113281 31.460938 31.460937 31.460938 31.460938-14.113282 31.460938-31.460938-14.113282-31.460938-31.460938-31.460938zm0 56.921876c-14.039062 0-25.460937-11.421876-25.460937-25.460938s11.421875-25.460938 25.460937-25.460938c14.039063 0 25.460938 11.421876 25.460938 25.460938s-11.421875 25.460938-25.460938 25.460938zm0 0" fill="#3a312a"/><path d="m161.652344 78.019531v-30.710937h-32.046875v30.710937h-30.714844v32.046875h30.714844v30.714844h32.046875v-30.714844h30.714844v-32.046875zm0 0" fill="#f16c7a"/><path d="m192.367188 75.019531h-27.714844v-27.710937c0-1.660156-1.339844-3-3-3h-32.046875c-1.65625 0-3 1.339844-3 3v27.710937h-27.714844c-1.65625 0-3 1.34375-3 3v32.046875c0 1.660156 1.34375 3 3 3h27.714844v27.714844c0 1.65625 1.34375 3 3 3h32.046875c1.660156 0 3-1.34375 3-3v-27.714844h27.714844c1.660156 0 3-1.339844 3-3v-32.046875c0-1.65625-1.34375-3-3-3zm-3 32.046875h-27.714844c-1.65625 0-3 1.34375-3 3v27.714844h-26.046875v-27.714844c0-1.65625-1.339844-3-3-3h-27.714844v-26.046875h27.714844c1.660156 0 3-1.339843 3-3v-27.710937h26.046875v27.710937c0 1.660157 1.34375 3 3 3h27.714844zm0 0" fill="#3a312a"/><path d="m228.929688 274.457031c8.441406 1.601563 16.699218 3.78125 24.71875 6.5625 7.460937 2.558594 14.703124 5.617188 21.722656 9.136719 1.257812-2.5 2.558594-4.957031 3.898437-7.398438-16.320312-5.261718-33.21875-8.058593-50.339843-8.300781zm0 0" fill="#decaad"/><g fill="#695b51"><path d="m285.011719 284.679688c-1.523438 2.699218-2.960938 5.4375-4.363281 8.238281 11.023437 5.960937 21.421874 13.058593 31.082031 21.179687 1.679687-4.699218 4.019531-9.101562 6.898437-13.078125-10.597656-6.582031-21.839844-12.101562-33.617187-16.339843zm0 0"/><path d="m403.429688 414.21875c-3.839844-12.839844-8.859376-25.101562-14.859376-36.660156-6.859374 4.058594-14.699218 6.640625-23.082031 7.238281 4.222657 9.140625 7.863281 18.679687 10.820313 28.539063 3.203125 10.523437 5.601562 21.421874 7.160156 32.601562h26.980469c-1.539063-10.839844-3.898438-21.5-7.019531-31.71875zm0 0"/></g></svg>