<svg height="452pt" viewBox="0 0 452 452.53728" width="452pt" xmlns="http://www.w3.org/2000/svg"><path d="m206.175781 336.835938h-39.0625v-25.386719c-10.800781 7.488281-21.980469 11.90625-32.828125 11.90625-10.40625 0-21.386718-4.460938-32.148437-12.039063h-.660157v25.515625h-39.082031c-32.65625 0-59.121093 26.46875-59.121093 59.121094v53.574219h262.023437v-53.574219c0-32.648437-26.46875-59.117187-59.121094-59.117187zm0 0" fill="#fce8cb"/><path d="m206.175781 333.835938h-36.0625v-22.386719c0-1.117188-.617187-2.140625-1.609375-2.65625-.988281-.519531-2.179687-.445313-3.097656.191406-10.886719 7.546875-21.359375 11.371094-31.125 11.371094-9.355469 0-19.589844-3.867188-30.414062-11.492188-.507813-.355469-1.109376-.546875-1.730469-.546875h-.660157c-1.65625 0-3 1.339844-3 3v22.519532h-36.082031c-34.253906 0-62.121093 27.867187-62.121093 62.121093v53.574219c0 1.65625 1.34375 3 3 3h89.777343c1.65625 0 3-1.34375 3-3s-1.34375-3-3-3h-86.777343v-50.574219c0-30.945312 25.175781-56.121093 56.121093-56.121093h39.082031c1.65625 0 3-1.34375 3-3v-20.355469c10.398438 6.558593 20.40625 9.875 29.808594 9.875 9.554688 0 19.566406-3.148438 29.828125-9.378907v19.859376c0 1.65625 1.34375 3 3 3h39.0625c30.945313 0 56.121094 25.175781 56.121094 56.121093v50.574219h-139.710937c-1.65625 0-3 1.34375-3 3s1.34375 3 3 3h142.707031c1.65625 0 3-1.34375 3-3v-53.574219c.003906-34.253906-27.863281-62.121093-62.117188-62.121093zm0 0" fill="#3a312a"/><path d="m206.175781 336.816406h-9.34375l.242188.175782-40.628907 53.886718-20.964843-15.796875-20.96875 15.796875-40.628907-53.886718.242188-.175782h-11.730469c-32.65625 0-59.125 26.46875-59.125 59.121094v53.601562h262.023438v-53.601562c.003906-32.652344-26.460938-59.121094-59.117188-59.121094zm0 0" fill="#8ac6dd"/><path d="m206.175781 333.816406h-9.34375c-1.300781 0-2.453125.835938-2.851562 2.070313-.042969.117187-.070313.234375-.09375.347656l-38.035157 50.445313-18.570312-13.992188c-1.066406-.804688-2.542969-.804688-3.609375 0l-18.570313 13.992188-38.035156-50.445313c-.023437-.113281-.050781-.230469-.089844-.347656-.402343-1.234375-1.554687-2.070313-2.855468-2.070313h-11.730469c-34.253906 0-62.121094 27.867188-62.121094 62.121094v53.601562c0 1.65625 1.34375 3 3 3h89.777344c1.65625 0 3-1.34375 3-3 0-1.660156-1.34375-3-3-3h-86.777344v-50.601562c0-30.945312 25.175781-56.121094 56.121094-56.121094h9.863281l39.863282 52.871094c.992187 1.324219 2.878906 1.585938 4.199218.589844l19.160156-14.4375 19.160157 14.4375c1.324219.996094 3.207031.734375 4.203125-.589844l39.863281-52.871094h7.472656c30.945313 0 56.121094 25.175782 56.121094 56.121094v50.601562h-139.710937c-1.65625 0-3 1.339844-3 3 0 1.65625 1.34375 3 3 3h142.710937c1.65625 0 3-1.34375 3-3v-53.601562c0-34.253906-27.867187-62.121094-62.121094-62.121094zm0 0" fill="#3a312a"/><path d="m32.765625 167.015625c-12.847656 0-23.261719 10.414063-23.261719 23.261719s10.417969 23.261718 23.261719 23.261718c12.847656 0 23.265625-10.414062 23.265625-23.261718s-10.417969-23.261719-23.265625-23.261719zm0 0" fill="#fce8cb" fill-rule="evenodd"/><path d="m32.765625 164.015625c-14.480469 0-26.261719 11.78125-26.261719 26.261719 0 14.480468 11.78125 26.265625 26.261719 26.265625s26.261719-11.785157 26.261719-26.265625c0-14.480469-11.78125-26.261719-26.261719-26.261719zm0 46.527344c-11.171875 0-20.261719-9.089844-20.261719-20.265625 0-11.171875 9.089844-20.261719 20.261719-20.261719s20.261719 9.089844 20.261719 20.261719c0 11.175781-9.089844 20.265625-20.261719 20.265625zm0 0" fill="#3a312a"/><path d="m235.8125 167.015625c-12.851562 0-23.265625 10.414063-23.265625 23.261719s10.417969 23.261718 23.265625 23.261718 23.261719-10.414062 23.261719-23.261718-10.414063-23.261719-23.261719-23.261719zm0 0" fill="#fce8cb" fill-rule="evenodd"/><path d="m235.8125 164.015625c-14.480469 0-26.265625 11.78125-26.265625 26.261719 0 14.480468 11.785156 26.265625 26.265625 26.265625s26.261719-11.785157 26.261719-26.265625c0-14.480469-11.78125-26.261719-26.261719-26.261719zm0 46.527344c-11.175781 0-20.265625-9.089844-20.265625-20.265625 0-11.171875 9.089844-20.261719 20.265625-20.261719 11.171875 0 20.261719 9.089844 20.261719 20.261719 0 11.175781-9.089844 20.265625-20.261719 20.265625zm0 0" fill="#3a312a"/><path d="m134.289062 75.855469c-56.957031 0-103.125 46.171875-103.125 103.128906 0 56.953125 57.046876 144.375 103.125 144.375 48.273438 0 103.125-87.421875 103.125-144.375 0-56.957031-46.167968-103.128906-103.125-103.128906zm0 0" fill="#fce8cb"/><g fill="#3a312a"><path d="m134.289062 72.855469c-58.519531 0-106.125 47.609375-106.125 106.128906 0 27.675781 13.339844 64.171875 34.816407 95.25 22.550781 32.640625 49.207031 52.125 71.308593 52.125 23.265626 0 49.558594-19.003906 72.144532-52.136719 20.960937-30.753906 33.980468-67.25 33.980468-95.238281 0-58.515625-47.605468-106.128906-106.125-106.128906zm67.1875 197.988281c-21.132812 31.007812-46.25 49.519531-67.1875 49.519531-20.128906 0-44.941406-18.519531-66.375-49.535156-20.820312-30.128906-33.753906-65.320313-33.753906-91.839844 0-55.210937 44.917969-100.128906 100.125-100.128906 55.210938 0 100.128906 44.917969 100.128906 100.128906 0 26.84375-12.621093 62.039063-32.9375 91.855469zm0 0"/><path d="m97.878906 167.753906c-5.558594 0-10.066406 4.507813-10.066406 10.066406 0 5.5625 4.507812 10.066407 10.066406 10.066407s10.066406-4.503907 10.066406-10.066407c0-5.558593-4.507812-10.066406-10.066406-10.066406zm0 0"/><path d="m170.695312 167.753906c-5.558593 0-10.066406 4.507813-10.066406 10.066406 0 5.5625 4.507813 10.066407 10.066406 10.066407 5.5625 0 10.066407-4.503907 10.066407-10.066407 0-5.558593-4.503907-10.066406-10.066407-10.066406zm0 0"/></g><path d="m77.761719 194.785156c-9.574219 0-17.339844 5.800782-17.339844 12.960938 0 7.15625 7.765625 12.960937 17.339844 12.960937 9.578125 0 17.339843-5.804687 17.339843-12.960937 0-7.160156-7.761718-12.960938-17.339843-12.960938zm0 0" fill="#f5978a"/><path d="m190.816406 194.785156c-9.578125 0-17.339844 5.800782-17.339844 12.960938 0 7.15625 7.761719 12.960937 17.339844 12.960937 9.574219 0 17.339844-5.804687 17.339844-12.960937 0-7.160156-7.765625-12.960938-17.339844-12.960938zm0 0" fill="#f5978a"/><path d="m242.21875 155.148438c0-56.359376-47.789062-102.050782-106.738281-102.050782-58.953125 0-106.742188 45.691406-106.742188 102.050782 0 5.964843 1.078125 10.410156 3.085938 15.960937.945312 2.621094 16.226562-5.738281 17.53125-6.65625 6.507812-4.582031 11.824219-10.792969 15.800781-17.65625 1.644531-2.855469 3.015625-5.761719 4.117188-8.667969 3.519531-9.269531 13.078124-35.066406 22.785156-33.042968 13.015625 2.714843 27.769531 4.25 43.421875 4.25 15.648437 0 30.402343-1.535157 43.417969-4.25 9.707031-2.023438 19.265624 23.773437 22.785156 33.042968 1.101562 2.90625 2.472656 5.8125 4.117187 8.667969 6.566407 11.355469 17.65625 22.167969 31.148438 24.136719.035156-.652344.855469-.875 1.472656-1.097656 4.417969-1.605469 3.796875-11.148438 3.796875-14.6875zm0 0" fill="#87796f"/><path d="m245.230469 156.300781-.011719-1.152343c0-57.921876-49.226562-105.050782-109.738281-105.050782s-109.738281 47.128906-109.738281 105.050782c0 6.621093 1.246093 11.40625 3.261718 16.984374.390625 1.082032 1.269532 1.910157 2.414063 2.269532.371093.117187.804687.171875 1.289062.171875 5.707031 0 18.253907-7.582031 18.375-7.667969 6.515625-4.585938 12.28125-11.019531 16.675781-18.613281 1.695313-2.941407 3.148438-6.003907 4.320313-9.101563l.226563-.597656c10.570312-27.882812 16.519531-31.101562 19.140624-30.570312 13.71875 2.859374 28.535157 4.308593 44.035157 4.308593s30.3125-1.449219 44.035156-4.308593c2.582031-.535157 8.566406 2.691406 19.140625 30.578124l.222656.589844c1.175782 3.097656 2.628906 6.160156 4.324219 9.105469 8.203125 14.1875 20.65625 23.761719 33.3125 25.605469.835937.121094 1.683594-.113282 2.339844-.648438.207031-.167968.386719-.363281.539062-.578125.027344-.007812.046875-.015625.050781-.019531 5.992188-2.175781 5.859376-11.402344 5.785157-16.355469zm-7.984375 10.769531c-.296875.105469-.832032.289063-1.382813.628907-10.34375-2.117188-20.515625-10.382813-27.460937-22.402344-1.535156-2.664063-2.851563-5.4375-3.910156-8.234375l-.226563-.589844c-6.902344-18.210937-15.410156-36.535156-25.976563-34.324218-13.316406 2.777343-27.71875 4.183593-42.808593 4.183593-15.085938 0-29.488281-1.40625-42.808594-4.183593-10.589844-2.195313-19.070313 16.113281-25.972656 34.320312l-.226563.59375c-1.058594 2.796875-2.375 5.570312-3.90625 8.226562-3.960937 6.839844-9.125 12.621094-14.925781 16.703126-1.789063 1.214843-10.046875 5.460937-13.574219 6.425781-1.449218-4.277344-2.320312-8.179688-2.320312-13.269531 0-54.621094 46.535156-99.050782 103.738281-99.050782s103.738281 44.433594 103.738281 99.050782l.015625 1.238281c.117188 8.625-1.101562 10.363281-1.992187 10.683593zm0 0" fill="#3a312a"/><path d="m73.910156 336.980469 21.054688-15.871094 40.617187 53.894531-21.054687 15.871094zm0 0" fill="#87796f"/><path d="m137.960938 373.207031-40.617188-53.894531c-.996094-1.324219-2.882812-1.589844-4.199219-.589844l-21.054687 15.867188c-.636719.480468-1.054688 1.191406-1.167969 1.980468-.109375.785157.097656 1.585938.574219 2.222657l40.617187 53.890625c.480469.636718 1.191407 1.054687 1.980469 1.167968.140625.019532.277344.03125.417969.03125.648437 0 1.28125-.210937 1.804687-.605468l21.050782-15.867188c1.324218-1 1.589843-2.882812.59375-4.203125zm-22.859376 13.472657-37.007812-49.101563 16.265625-12.257813 37.003906 49.101563zm0 0" fill="#3a312a"/><path d="m135.398438 375.03125 40.617187-53.894531 21.054687 15.867187-40.617187 53.894532zm0 0" fill="#87796f"/><path d="m200.035156 336.570312c-.113281-.789062-.53125-1.5-1.167968-1.980468l-21.050782-15.867188c-1.320312-1-3.207031-.734375-4.203125.589844l-40.617187 53.894531c-.996094 1.324219-.730469 3.203125.59375 4.203125l21.050781 15.867188c.523437.394531 1.15625.605468 1.804687.605468.136719 0 .277344-.011718.417969-.03125.789063-.109374 1.496094-.53125 1.976563-1.167968l40.617187-53.890625c.480469-.636719.691407-1.4375.578125-2.222657zm-44.179687 50.109376-16.261719-12.257813 37.003906-49.101563 16.265625 12.257813zm0 0" fill="#3a312a"/><path d="m52.351562 404.191406c-1.65625 0-3 1.34375-3 3v42.34375c0 1.65625 1.34375 3 3 3s3-1.34375 3-3v-42.34375c0-1.65625-1.34375-3-3-3zm0 0" fill="#3a312a"/><path d="m218.605469 404.191406c-1.65625 0-3 1.34375-3 3v42.34375c0 1.65625 1.34375 3 3 3s3-1.34375 3-3v-42.34375c0-1.65625-1.34375-3-3-3zm0 0" fill="#3a312a"/><path d="m133.550781 16.058594c-72.695312 42.765625-114.890625-39.445313-114.890625-1.953125 0 11.851562 4.773438 23.667969 11.039063 34.421875l17.351562 24.597656c17.503907 22.042969 38.445313 45.542969 63.734375 52.734375 40.738282 11.582031 112.835938-2.867187 112.835938-61.5 0-37.492187-31.421875-82.804687-90.070313-48.300781zm0 0" fill="#87796f"/><path d="m196.816406 7.101562c-12.480468-7.1367182-33.855468-11.832031-64.789062 6.371094-42.292969 24.878906-73.777344 5.992188-92.589844-5.292968-8.941406-5.363282-14.84375-8.90625-19.4375-6.308594-3.847656 2.179687-4.34375 7.683594-4.34375 12.234375 0 10.960937 3.746094 22.714843 11.449219 35.9375.042969.074219.089843.144531.140625.214843l17.351562 24.59375c.03125.046876.066406.09375.101563.136719 18.753906 23.613281 39.636719 46.46875 65.265625 53.753907 8.613281 2.445312 18.730468 3.792968 29.363281 3.792968 21.636719 0 45.390625-5.570312 62.816406-18.730468 16.011719-12.097657 24.476563-29.195313 24.476563-49.449219 0-20.011719-9.214844-45.480469-29.804688-57.253907zm1.710938 101.917969c-24.417969 18.441407-62.207032 20.976563-86.921875 13.953125-23.96875-6.816406-44.039063-28.84375-62.152344-51.644531l-17.222656-24.421875c-7.113281-12.230469-10.570313-22.960938-10.570313-32.800781 0-6.207031 1.246094-6.984375 1.296875-7.015625 1.558594-.875 8.398438 3.234375 13.394531 6.234375 18.648438 11.183593 53.359376 32 98.71875 5.316406 22.527344-13.25 42.847657-15.4375 58.769532-6.332031 18.5 10.582031 26.78125 33.765625 26.78125 52.050781 0 18.558594-7.433594 33.585937-22.09375 44.660156zm0 0" fill="#3a312a"/><path d="m163.832031 242.089844c-1.558593-.582032-3.28125.207031-3.863281 1.757812-2.042969 5.460938-10.042969 15.789063-25.6875 15.789063-12.214844 0-20.652344-5.242188-25.785156-16.027344-.710938-1.5-2.5-2.132813-3.996094-1.421875-1.496094.714844-2.132812 2.503906-1.421875 4 6.140625 12.902344 16.640625 19.449219 31.203125 19.449219 16.449219 0 27.757812-10.207031 31.304688-19.683594.585937-1.554687-.203126-3.285156-1.753907-3.863281zm0 0" fill="#3a312a"/><path d="m224.050781 91.828125h-178.164062c-11.550781 0-20.917969 9.367187-20.917969 20.917969 0 11.554687 9.367188 20.917968 20.917969 20.917968h178.164062c11.554688 0 20.917969-9.363281 20.917969-20.917968 0-11.550782-9.363281-20.917969-20.917969-20.917969zm0 0" fill="#8ac6dd"/><path d="m224.050781 88.828125h-178.164062c-13.1875 0-23.917969 10.730469-23.917969 23.917969s10.730469 23.917968 23.917969 23.917968h178.164062c13.191407 0 23.917969-10.730468 23.917969-23.917968s-10.730469-23.917969-23.917969-23.917969zm0 41.835937h-178.164062c-9.878907 0-17.917969-8.035156-17.917969-17.917968 0-9.878906 8.039062-17.917969 17.917969-17.917969h178.164062c9.878907 0 17.917969 8.039063 17.917969 17.917969 0 9.882812-8.039062 17.917968-17.917969 17.917968zm0 0" fill="#3a312a"/><path d="m178.96875 112.746094c0 24.300781-19.699219 44-44 44s-44-19.699219-44-44c0-24.300782 19.699219-44 44-44s44 19.699218 44 44zm0 0" fill="#f16c7a"/><path d="m134.96875 65.746094c-25.914062 0-47 21.085937-47 47 0 25.917968 21.085938 47 47 47 25.917969 0 47-21.082032 47-47 0-25.914063-21.082031-47-47-47zm0 88c-22.605469 0-41-18.390625-41-41 0-22.605469 18.394531-41 41-41 22.609375 0 41 18.394531 41 41 0 22.609375-18.390625 41-41 41zm0 0" fill="#3a312a"/><path d="m160.015625 112.746094c0 13.832031-11.214844 25.046875-25.046875 25.046875s-25.046875-11.214844-25.046875-25.046875c0-13.832032 11.214844-25.042969 25.046875-25.042969s25.046875 11.210937 25.046875 25.042969zm0 0" fill="#d7e057"/><path d="m134.96875 84.703125c-15.460938 0-28.042969 12.582031-28.042969 28.042969 0 15.464844 12.582031 28.046875 28.042969 28.046875 15.464844 0 28.046875-12.582031 28.046875-28.046875 0-15.460938-12.582031-28.042969-28.046875-28.042969zm0 50.089844c-12.152344 0-22.042969-9.890625-22.042969-22.046875s9.890625-22.042969 22.042969-22.042969c12.15625 0 22.046875 9.886719 22.046875 22.042969s-9.890625 22.046875-22.046875 22.046875zm0 0" fill="#3a312a"/><path d="m360.210938 167.046875c-24.089844 0-45.9375 8.394531-62.011719 22.015625l-19.285157 23.90625c-5.183593 9.953125-8.097656 21.015625-8.097656 32.679688 0 19.824218 8.367188 37.921874 22.136719 51.75l-14.121094 35.59375c-1.355469 3.414062 1.886719 6.855468 5.375 5.710937l52.382813-17.242187c7.527344 1.808593 15.441406 2.792968 23.621094 2.792968 49.375 0 89.398437-35.191406 89.398437-78.605468 0-43.410157-40.023437-78.601563-89.398437-78.601563zm0 0" fill="#f16c7a"/><path d="m360.210938 164.046875c-23.941407 0-46.65625 8.074219-63.949219 22.726563-1.265625 1.074218-1.421875 2.964843-.351563 4.230468 1.074219 1.261719 2.960938 1.417969 4.226563.347656 16.214843-13.738281 37.546875-21.304687 60.074219-21.304687 47.636718 0 86.394531 33.917969 86.394531 75.605469s-38.757813 75.601562-86.394531 75.601562c-7.722657 0-15.4375-.910156-22.921876-2.710937-.542968-.132813-1.113281-.105469-1.636718.066406l-52.382813 17.246094c-.707031.234375-1.167969-.121094-1.382812-.351563-.214844-.230468-.539063-.714844-.265625-1.402344l14.125-35.59375c.441406-1.109374.179687-2.375-.664063-3.222656-13.710937-13.765625-21.261719-31.390625-21.261719-49.632812 0-10.882813 2.609376-21.414063 7.757813-31.296875.765625-1.46875.195313-3.28125-1.277344-4.042969-1.46875-.765625-3.28125-.195312-4.042969 1.273438-5.601562 10.75-8.4375 22.210937-8.4375 34.070312 0 19.214844 7.667969 37.761719 21.628907 52.445312l-13.40625 33.789063c-1.058594 2.671875-.496094 5.632813 1.476562 7.730469 1.417969 1.503906 3.328125 2.308594 5.304688 2.308594.769531 0 1.550781-.121094 2.320312-.375l51.578125-16.976563c7.683594 1.777344 15.578125 2.679687 23.488282 2.679687 50.949218 0 92.394531-36.609374 92.394531-81.605468s-41.445313-81.605469-92.394531-81.605469zm0 0" fill="#3a312a"/><path d="m421.375 22.351562c-1.949219 23.128907-26.050781 26.777344-26.050781 26.777344 20.695312.972656 25.851562 28.117188 25.851562 28.117188.441407-19.351563 26.640625-28.402344 26.640625-28.402344-19.625-1.175781-26.441406-26.492188-26.441406-26.492188zm0 0" fill="#d7e057"/><path d="m448 45.847656c-17.210938-1.027344-23.664062-24.046875-23.726562-24.28125-.378907-1.402344-1.683594-2.328125-3.167969-2.203125-1.449219.132813-2.597657 1.285157-2.71875 2.734375-1.71875 20.429688-22.625 23.925782-23.511719 24.066406-1.523438.230469-2.625 1.578126-2.542969 3.121094.078125 1.539063 1.3125 2.769532 2.855469 2.84375 18.054688.847656 22.996094 25.433594 23.042969 25.683594.277343 1.421875 1.519531 2.433594 2.945312 2.433594.085938 0 .167969-.003906.253907-.011719 1.527343-.128906 2.714843-1.386719 2.75-2.917969.386718-17.015625 24.382812-25.554687 24.625-25.636718 1.351562-.46875 2.183593-1.828126 1.988281-3.246094-.199219-1.417969-1.367188-2.5-2.792969-2.585938zm-27.132812 20.695313c-2.710938-6.265625-7.417969-13.816407-15.175782-17.753907 5.863282-2.808593 12.820313-7.828124 16.40625-16.546874 3.101563 6.140624 8.398438 13.757812 16.667969 17.445312-6.015625 3.28125-13.847656 8.808594-17.898437 16.855469zm0 0" fill="#3a312a"/><path d="m377.976562 56.3125c-1.375 16.359375-18.425781 18.941406-18.425781 18.941406 14.636719.6875 18.285157 19.890625 18.285157 19.890625.3125-13.691406 18.84375-20.089843 18.84375-20.089843-13.882813-.832032-18.703126-18.742188-18.703126-18.742188zm0 0" fill="#d7e057"/><path d="m396.859375 72.058594c-11.53125-.691406-15.941406-16.375-15.984375-16.53125-.378906-1.402344-1.730469-2.316406-3.164062-2.203125-1.453126.128906-2.601563 1.285156-2.722657 2.734375-1.15625 13.742187-15.292969 16.132812-15.882812 16.230468-1.527344.226563-2.625 1.578126-2.546875 3.121094.078125 1.539063 1.3125 2.765625 2.855468 2.839844 12.070313.570312 15.449219 17.289062 15.480469 17.453125.269531 1.425781 1.515625 2.441406 2.945313 2.441406.082031 0 .164062-.003906.25-.011719 1.527344-.125 2.714844-1.386718 2.75-2.921874.261718-11.417969 16.664062-17.269532 16.824218-17.324219 1.351563-.46875 2.1875-1.824219 1.992188-3.242188-.199219-1.417969-1.367188-2.5-2.796875-2.585937zm-19.167969 13.589844c-1.847656-3.773438-4.679687-7.894532-8.894531-10.5625 3.710937-2.082032 7.394531-5.257813 9.742187-9.832032 2.113282 3.746094 5.308594 7.90625 9.882813 10.449219-3.699219 2.199219-7.980469 5.476563-10.730469 9.945313zm0 0" fill="#3a312a"/><path d="m377.976562 2.996094c-1.375 16.359375-18.425781 18.941406-18.425781 18.941406 14.636719.6875 18.285157 19.886719 18.285157 19.886719.3125-13.6875 18.84375-20.089844 18.84375-20.089844-13.882813-.828125-18.703126-18.738281-18.703126-18.738281zm0 0" fill="#d7e057"/><path d="m396.859375 18.742188c-11.53125-.691407-15.941406-16.371094-15.984375-16.527344-.378906-1.40625-1.730469-2.316406-3.164062-2.2070315-1.453126.1328125-2.601563 1.2890625-2.722657 2.7382815-1.15625 13.742187-15.292969 16.132812-15.882812 16.226562-1.527344.230469-2.625 1.582032-2.546875 3.121094.078125 1.542969 1.3125 2.769531 2.855468 2.84375 12.070313.566406 15.449219 17.289062 15.480469 17.453125.269531 1.421875 1.515625 2.4375 2.945313 2.4375.082031 0 .164062 0 .25-.007813 1.527344-.128906 2.714844-1.390624 2.75-2.921874.261718-11.417969 16.664062-17.269532 16.824218-17.324219 1.351563-.46875 2.1875-1.828125 1.992188-3.246094-.199219-1.417969-1.367188-2.5-2.796875-2.585937zm-19.167969 13.589843c-1.847656-3.773437-4.679687-7.894531-8.894531-10.5625 3.710937-2.082031 7.394531-5.257812 9.742187-9.832031 2.113282 3.75 5.308594 7.910156 9.878907 10.449219-3.695313 2.199219-7.976563 5.480469-10.726563 9.945312zm0 0" fill="#3a312a"/><path d="m342.984375 304.199219h30.707031v-27.082031h-30.707031zm45.570313-111.675781c-6.742188-4.574219-15.59375-6.863282-26.554688-6.863282-14.082031 0-24.535156 3.277344-31.347656 9.84375-6.816406 6.5625-10.726563 15.226563-11.734375 25.992188l29.273437 3.621094c.652344-5.886719 2.148438-10.007813 4.488282-12.371094 2.339843-2.363282 5.292968-3.546875 8.863281-3.546875 3.320312 0 5.796875.769531 7.433593 2.300781 1.632813 1.535156 2.449219 3.683594 2.449219 6.453125 0 2.765625-2.03125 5.804687-6.105469 9.125-7.648437 6.339844-12.566406 10.765625-14.75 13.277344-2.191406 2.519531-3.835937 5.296875-4.941406 8.335937-1.109375 3.046875-1.660156 7.007813-1.660156 11.882813v2.867187h28.664062c0-3.921875.667969-7.105468 2-9.542968 1.332032-2.4375 4.539063-5.671876 9.621094-9.691407 7.292969-5.734375 12.121094-10.585937 14.484375-14.5625 2.363281-3.972656 3.546875-8.097656 3.546875-12.375 0-10.308593-4.578125-18.558593-13.730468-24.746093zm0 0" fill="#87796f"/><path d="m390.238281 190.042969c-7.21875-4.898438-16.71875-7.382813-28.242187-7.382813-14.824219 0-26.070313 3.59375-33.421875 10.683594-7.316407 7.042969-11.570313 16.417969-12.640625 27.875-.152344 1.613281 1.007812 3.054688 2.617187 3.253906l29.273438 3.621094c.796875.097656 1.601562-.125 2.226562-.621094.628907-.5 1.035157-1.226562 1.125-2.023437.5625-5.09375 1.820313-8.757813 3.640625-10.59375 1.765625-1.789063 3.96875-2.65625 6.726563-2.65625 2.519531 0 4.328125.5 5.378906 1.488281 1.011719.953125 1.503906 2.347656 1.503906 4.265625 0 1.015625-.648437 3.253906-5.023437 6.816406-7.839844 6.5-12.78125 10.953125-15.101563 13.617188-2.417969 2.78125-4.265625 5.90625-5.492187 9.277343-1.238282 3.402344-1.84375 7.625-1.84375 12.910157v2.867187c0 1.660156 1.347656 3 3 3h28.667968c1.65625 0 3-1.339844 3-3 0-3.394531.546876-6.121094 1.632813-8.105468.777344-1.421876 2.941406-4.101563 8.835937-8.773438 7.664063-6.023438 12.636719-11.054688 15.210938-15.382812 2.632812-4.425782 3.96875-9.105469 3.96875-13.90625.003906-11.320313-5.0625-20.484376-15.042969-27.230469zm5.921875 38.0625c-2.160156 3.632812-6.792968 8.253906-13.773437 13.742187-5.449219 4.320313-8.847657 7.792969-10.386719 10.609375-1.199219 2.195313-1.949219 4.871094-2.234375 7.980469h-22.796875c.011719-4.449219.507812-8.054688 1.480469-10.722656.972656-2.679688 2.449219-5.167969 4.382812-7.390625 2.070313-2.382813 6.917969-6.734375 14.378907-12.921875 4.855468-3.953125 7.214843-7.699219 7.214843-11.453125 0-3.613281-1.144531-6.523438-3.398437-8.640625-2.203125-2.066406-5.394532-3.113282-9.484375-3.113282-4.382813 0-8.085938 1.492188-10.996094 4.4375-2.402344 2.425782-4.023437 6.089844-4.914063 11.140626l-23.375-2.890626c1.320313-8.664062 4.839844-15.792968 10.476563-21.21875 6.199219-5.976562 16.042969-9.003906 29.261719-9.003906 10.292968 0 18.664062 2.132813 24.875 6.347656 8.347656 5.644532 12.410156 12.925782 12.410156 22.257813.003906 3.710937-1.046875 7.359375-3.121094 10.839844zm-22.46875 46.011719h-30.707031c-1.65625 0-3 1.339843-3 3v27.082031c0 1.65625 1.34375 3 3 3h30.707031c1.65625 0 3-1.34375 3-3v-27.082031c0-1.660157-1.34375-3-3-3zm-3 27.082031h-24.707031v-21.082031h24.707031zm0 0" fill="#3a312a"/><path d="m360.203125 170.046875c-5.078125 0-10.078125.378906-14.976563 1.140625 14.636719 2.261719 28.019532 7.761719 39.136719 15.621094.019531 0 .042969.019531.042969.019531 2.078125.917969 4.039062 2 5.839844 3.21875 6 4.039063 10.21875 8.980469 12.617187 14.71875 8.703125 11.800781 13.742188 25.839844 13.742188 40.882813 0 37.199218-30.859375 68.199218-71.339844 74.457031 4.9375.761719 9.9375 1.140625 14.9375 1.140625 47.640625 0 86.402344-33.898438 86.402344-75.597656 0-41.679688-38.761719-75.601563-86.402344-75.601563zm0 0" fill="#d34e5c"/></svg>