<svg height="476pt" viewBox="0 -12 476.12426 476" width="476pt" xmlns="http://www.w3.org/2000/svg"><path d="m78.152344 22.636719c-1.949219 23.125-26.050782 26.777343-26.050782 26.777343 20.695313.976563 25.851563 28.117188 25.851563 28.117188.441406-19.351562 26.640625-28.402344 26.640625-28.402344-19.625-1.175781-26.441406-26.492187-26.441406-26.492187zm0 0" fill="#d7e057"/><path d="m104.773438 46.132812c-17.207032-1.027343-23.664063-24.046874-23.726563-24.28125-.378906-1.402343-1.695313-2.320312-3.164063-2.203124-1.449218.132812-2.597656 1.285156-2.71875 2.734374-1.71875 20.429688-22.625 23.925782-23.507812 24.0625-1.527344.230469-2.625 1.582032-2.546875 3.125.082031 1.539063 1.316406 2.765626 2.855469 2.839844 18.054687.851563 22.996094 25.4375 23.046875 25.683594.273437 1.421875 1.515625 2.433594 2.941406 2.433594.085937 0 .167969 0 .253906-.007813 1.527344-.128906 2.714844-1.386719 2.75-2.917969.386719-17.015624 24.378907-25.554687 24.621094-25.640624 1.351563-.46875 2.183594-1.828126 1.988281-3.242188-.195312-1.417969-1.363281-2.5-2.792968-2.585938zm-27.128907 20.691407c-2.714843-6.257813-7.417969-13.8125-15.175781-17.75 5.863281-2.8125 12.820312-7.828125 16.40625-16.546875 3.101562 6.140625 8.398438 13.757812 16.667969 17.445312-6.015625 3.277344-13.847657 8.808594-17.898438 16.851563zm0 0" fill="#3a312a"/><path d="m34.753906 56.597656c-1.378906 16.355469-18.421875 18.941406-18.421875 18.941406 14.632813.6875 18.28125 19.886719 18.28125 19.886719.3125-13.6875 18.84375-20.089843 18.84375-20.089843-13.878906-.832032-18.703125-18.738282-18.703125-18.738282zm0 0" fill="#d7e057"/><path d="m53.636719 72.339844c-11.53125-.691406-15.941407-16.371094-15.984375-16.527344-.382813-1.40625-1.703125-2.332031-3.164063-2.207031-1.453125.132812-2.601562 1.289062-2.722656 2.738281-1.15625 13.742188-15.292969 16.132812-15.882813 16.226562-1.527343.230469-2.625 1.582032-2.546874 3.121094.082031 1.542969 1.316406 2.769532 2.855468 2.84375 12.070313.566406 15.445313 17.289063 15.480469 17.453125.269531 1.425781 1.515625 2.4375 2.941406 2.4375.085938 0 .167969 0 .25-.007812 1.53125-.128907 2.71875-1.390625 2.753907-2.921875.257812-11.417969 16.664062-17.269532 16.824218-17.324219 1.355469-.46875 2.1875-1.828125 1.992188-3.246094-.195313-1.417969-1.367188-2.5-2.796875-2.585937zm-19.167969 13.589844c-1.847656-3.769532-4.679688-7.894532-8.894531-10.558594 3.710937-2.082032 7.394531-5.257813 9.738281-9.832032 2.117188 3.746094 5.308594 7.90625 9.882812 10.445313-3.695312 2.203125-7.976562 5.480469-10.726562 9.945313zm0 0" fill="#3a312a"/><path d="m34.753906 3.28125c-1.378906 16.359375-18.421875 18.941406-18.421875 18.941406 14.632813.6875 18.28125 19.886719 18.28125 19.886719.3125-13.691406 18.84375-20.089844 18.84375-20.089844-13.878906-.832031-18.703125-18.738281-18.703125-18.738281zm0 0" fill="#d7e057"/><path d="m53.636719 19.023438c-11.53125-.6875-15.945313-16.371094-15.984375-16.527344-.382813-1.40625-1.703125-2.335938-3.164063-2.207032-1.453125.132813-2.601562 1.289063-2.722656 2.738282-1.15625 13.742187-15.292969 16.132812-15.882813 16.226562-1.527343.230469-2.625 1.582032-2.546874 3.121094.082031 1.542969 1.316406 2.769531 2.855468 2.84375 12.070313.566406 15.445313 17.289062 15.480469 17.453125.269531 1.425781 1.515625 2.4375 2.941406 2.4375.085938 0 .167969 0 .25-.007813 1.53125-.125 2.71875-1.390624 2.753907-2.921874.257812-11.417969 16.664062-17.269532 16.824218-17.324219 1.351563-.46875 2.1875-1.828125 1.992188-3.246094-.195313-1.414063-1.367188-2.5-2.796875-2.585937zm-19.167969 13.589843c-1.847656-3.769531-4.679688-7.890625-8.894531-10.558593 3.710937-2.082032 7.394531-5.257813 9.738281-9.832032 2.117188 3.75 5.3125 7.910156 9.882812 10.449219-3.695312 2.199219-7.976562 5.480469-10.726562 9.941406zm0 0" fill="#3a312a"/><path d="m241.460938 14.332031c-1.957032-1.660156-4.839844-1.660156-6.796876 0l-197.601562 167.597657v267.101562h402v-267.101562zm0 0" fill="#8ac6dd"/><path d="m441.003906 179.644531-197.601562-167.605469c-3.097656-2.617187-7.585938-2.617187-10.683594.003907l-197.597656 167.601562c-.671875.566407-1.0625 1.40625-1.0625 2.285157v95.328124c0 1.660157 1.34375 3 3 3 1.660156 0 3-1.339843 3-3v-93.9375l196.539062-166.699218c.847656-.714844 2.078125-.714844 2.921875-.003906l196.542969 166.703124v262.710938h-396v-139.226562c0-1.660157-1.34375-3-3-3s-3 1.339843-3 3v142.226562c0 1.65625 1.34375 3 3 3h402c1.65625 0 3-1.34375 3-3v-267.101562c0-.878907-.386719-1.71875-1.058594-2.285157zm0 0" fill="#3a312a"/><path d="m468.179688 192.269531-217.667969-184.625c-7.214844-6.109375-17.683594-6.113281-24.90625.007813l-217.660157 184.617187c-5.898437 5.003907-6.621093 13.839844-1.617187 19.734375 5 5.898438 13.835937 6.617188 19.730469 1.617188l212.003906-179.820313 212 179.820313c2.632812 2.234375 5.851562 3.324218 9.050781 3.324218 3.96875 0 7.914063-1.679687 10.683594-4.941406 5.003906-5.894531 4.277344-14.730468-1.617187-19.734375zm0 0" fill="#f16c7a"/><path d="m476.066406 201.558594c-.371094-4.527344-2.480468-8.636719-5.945312-11.574219l-217.671875-184.632813c-8.335938-7.058593-20.441407-7.050781-28.78125.011719l-217.664063 184.621094c-3.464844 2.9375-5.574218 7.046875-5.9453122 11.574219-.3710938 4.523437 1.0429682 8.925781 3.9804682 12.382812 6.0625 7.148438 16.8125 8.03125 23.960938 1.96875l210.0625-178.175781 210.0625 178.175781c3.070312 2.601563 6.972656 4.035156 10.992188 4.035156 5.003906 0 9.734374-2.1875 12.96875-6.003906 2.9375-3.457031 4.351562-7.859375 3.980468-12.382812zm-8.554687 8.503906c-2.09375 2.464844-5.15625 3.882812-8.398438 3.882812-2.597656 0-5.121093-.929687-7.109375-2.613281l-212-179.820312c-.5625-.476563-1.25-.710938-1.941406-.710938s-1.378906.234375-1.941406.710938l-212 179.824219c-4.625 3.921874-11.582032 3.351562-15.507813-1.273438-1.898437-2.238281-2.8125-5.085938-2.574219-8.011719.242188-2.929687 1.605469-5.589843 3.847657-7.488281l217.660156-184.621094c6.089844-5.164062 14.933594-5.164062 21.027344-.007812l217.667969 184.628906c2.238281 1.898438 3.605468 4.558594 3.84375 7.488281.238281 2.925781-.675782 5.773438-2.574219 8.011719zm0 0" fill="#3a312a"/><path d="m168.542969 350.296875v65.664063c0 12.191406 9.882812 22.070312 22.070312 22.070312s22.066407-9.878906 22.066407-22.070312v-65.664063zm0 0" fill="#fce8cb"/><path d="m212.679688 347.296875h-44.136719c-1.65625 0-3 1.34375-3 3v65.664063c0 13.824218 11.246093 25.070312 25.070312 25.070312 13.820313 0 25.066407-11.246094 25.066407-25.070312v-65.664063c0-1.65625-1.339844-3-3-3zm-3 68.664063c0 10.515624-8.554688 19.070312-19.066407 19.070312-10.515625 0-19.070312-8.554688-19.070312-19.070312v-62.664063h38.136719zm0 0" fill="#3a312a"/><path d="m304.183594 361.597656c-12.1875 0-22.070313 9.882813-22.070313 22.070313v32.292969c0 12.191406 9.882813 22.070312 22.070313 22.070312s22.066406-9.878906 22.066406-22.070312v-32.292969c0-12.1875-9.878906-22.070313-22.066406-22.070313zm0 0" fill="#fce8cb"/><path d="m304.183594 358.597656c-13.824219 0-25.070313 11.246094-25.070313 25.070313v32.292969c0 13.820312 11.246094 25.066406 25.070313 25.066406 13.820312 0 25.066406-11.246094 25.066406-25.066406v-32.292969c0-13.824219-11.246094-25.070313-25.066406-25.070313zm19.066406 57.363282c0 10.515624-8.554688 19.070312-19.066406 19.070312-10.515625 0-19.070313-8.554688-19.070313-19.070312v-32.292969c0-10.511719 8.554688-19.066407 19.070313-19.066407 10.511718 0 19.066406 8.554688 19.066406 19.066407zm0 0" fill="#3a312a"/><path d="m387.6875 276.019531c-12.996094-5.382812-23.316406 20.558594-40.34375 37.585938-.820312.820312-1.617188 1.640625-2.398438 2.464843-18.53125-28.746093-94.589843-28.75-94.589843-28.75l-58.839844 11.132813c-13.851563 2.621094-24.398437 14.03125-25.769531 28.0625-2.871094 29.449219 6.851562 51.980469 16.789062 65.121094v24.324219c0 12.191406 9.882813 22.070312 22.070313 22.070312s22.066406-9.878906 22.066406-22.070312v-10.964844c4.695313.058594 9.789063.121094 15.117187.183594l28.523438.28125c8.808594.074218 17.585938.128906 25.792969.148437v10.351563c0 12.191406 9.882812 22.070312 22.070312 22.070312s22.066407-9.878906 22.066407-22.070312v-11.632813c4.457031-3.601563 12.234374-30.089844 10.972656-58.644531 4.898437-3.554688 10.074218-7.964844 15.160156-13.050782 17.027344-17.023437 38.617188-49.449218 21.3125-56.613281zm0 0" fill="#fce8cb"/><path d="m396.75 282.699219c-.878906-4.402344-3.613281-7.671875-7.910156-9.453125-10.75-4.453125-18.96875 6.734375-28.488282 19.683594-4.65625 6.335937-9.46875 12.886718-15.085937 18.507812-22.109375-26.796875-91.847656-27.117188-94.910156-27.117188-.1875 0-.375.015626-.558594.050782l-58.839844 11.132812c-15.117187 2.859375-26.710937 15.492188-28.195312 30.71875-3.34375 34.285156 10.136719 57.34375 16.773437 66.402344v23.332031c0 13.824219 11.246094 25.070313 25.070313 25.070313 13.820312 0 25.066406-11.246094 25.066406-25.070313v-7.929687l12.082031.148437c1.644532.007813 3.015625-1.308593 3.035156-2.96875.015626-1.65625-1.3125-3.015625-2.964843-3.03125l-15.117188-.183593c-.839843-.039063-1.574219.300781-2.144531.867187-.570312.5625-.890625 1.332031-.890625 2.132813v10.964843c0 10.515625-8.554687 19.070313-19.070313 19.070313-10.511718 0-19.066406-8.554688-19.066406-19.070313v-24.324219c0-.65625-.214844-1.292968-.609375-1.8125-5.949219-7.867187-19.4375-29.75-16.195312-63.015624 1.226562-12.59375 10.824219-23.039063 23.339843-25.40625l58.554688-11.078126c4.964844.039063 74.886719 1.140626 91.796875 27.371094.496094.769532 1.324219 1.273438 2.238281 1.359375.921875.085938 1.816406-.25 2.453125-.914062.765625-.804688 1.546875-1.613281 2.347657-2.414063 5.957031-5.957031 11.144531-13.015625 15.722656-19.242187 8.023437-10.917969 14.945312-20.335938 21.351562-17.695313 2.464844 1.019532 3.835938 2.632813 4.324219 5.082032 2.054687 10.320312-12.214844 32.246093-26.609375 46.640624-4.855469 4.855469-9.832031 9.140626-14.800781 12.742188-.816407.59375-1.277344 1.554688-1.234375 2.5625 1.308594 29.519531-6.988282 53.855469-9.859375 56.175781-.703125.570313-1.113281 1.425781-1.113281 2.335938v11.632812c0 10.515625-8.554688 19.070313-19.070313 19.070313-10.511719 0-19.066406-8.554688-19.066406-19.070313v-10.355469c0-1.652343-1.339844-2.996093-2.992188-3-8.203125-.019531-16.976562-.074218-25.773437-.144531h-.027344c-1.644531 0-2.984375 1.328125-3 2.976563-.011719 1.660156 1.320312 3.011718 2.976562 3.023437 7.75.0625 15.480469.113281 22.816407.136719v7.363281c0 13.824219 11.246093 25.070313 25.070312 25.070313 13.820313 0 25.066407-11.246094 25.066407-25.070313v-10.457031c5.453124-6.875 11.898437-31.996094 11.03125-58.347656 4.785156-3.578125 9.5625-7.746094 14.222656-12.402344 12.945312-12.9375 31.148437-37.484375 28.253906-52.050781zm0 0" fill="#3a312a"/><path d="m387.6875 276.019531c-12.996094-5.382812-23.320312 20.5625-40.335938 37.589844-.820312.820313-1.613281 1.636719-2.402343 2.457031-18.535157-28.742187-94.589844-28.742187-94.589844-28.742187l-58.84375 11.128906c-13.851563 2.625-24.402344 14.039063-25.769531 28.0625-1.054688 10.808594-.410156 20.679687 1.3125 29.496094 12.789062-5.714844 23.554687-8.945313 35.394531-8.945313 17.992187 0 43.640625 12.523438 60.285156 19.375 18.300781 7.539063 27.074219 9.722656 41.984375 7.539063 18.546875-2.726563 27.742188-16.050781 45.730469-10.769531.160156.042968.3125.097656.472656.140624.421875-5.660156.5625-11.613281.289063-17.664062 4.898437-3.566406 10.078125-7.964844 15.160156-13.058594 17.027344-17.019531 38.621094-49.441406 21.3125-56.609375zm0 0" fill="#87796f"/><path d="m396.75 282.707031c-.875-4.40625-3.613281-7.675781-7.914062-9.457031-10.746094-4.453125-18.96875 6.738281-28.492188 19.695312-4.652344 6.332032-9.460938 12.878907-15.070312 18.5-22.109376-26.800781-91.855469-27.121093-94.917969-27.121093-.1875 0-.375.015625-.558594.050781l-58.839844 11.128906c-15.121093 2.867188-26.714843 15.5-28.199219 30.722656-1.011718 10.367188-.554687 20.582032 1.355469 30.359376.175781.898437.75 1.667968 1.5625 2.089843.8125.417969 1.769531.449219 2.605469.074219 13.796875-6.167969 23.699219-8.683594 34.167969-8.683594 14.4375 0 34.324219 8.539063 50.300781 15.402344 3.140625 1.347656 6.113281 2.625 8.839844 3.75 14.132812 5.816406 22.945312 8.5625 33.132812 8.5625 3.261719 0 6.664063-.28125 10.429688-.835938 7.800781-1.144531 14.097656-4.085937 19.648437-6.683593 8.070313-3.773438 15.042969-7.035157 24.988281-4.113281l.355469.105468c.859375.230469 1.785157.0625 2.511719-.453125.726562-.519531 1.1875-1.335937 1.253906-2.226562.414063-5.582031.535156-11.09375.359375-16.414063 4.832031-3.625 9.609375-7.792968 14.21875-12.410156 12.953125-12.9375 31.15625-37.472656 28.261719-52.042969zm-32.5 47.804688c-4.796875 4.808593-9.777344 9.097656-14.800781 12.75-.8125.589843-1.277344 1.554687-1.230469 2.558593.199219 4.449219.175781 9.058594-.0625 13.742188-10.289062-2.035156-17.890625 1.519531-25.890625 5.261719-5.429687 2.539062-11.046875 5.167969-17.980469 6.183593-14.25 2.089844-22.585937 0-40.40625-7.339843-2.703125-1.113281-5.648437-2.378907-8.757812-3.710938-16.484375-7.082031-37-15.890625-52.667969-15.890625-10.296875 0-20.359375 2.316406-33.09375 7.675782-1.242187-8.078126-1.453125-16.449219-.628906-24.933594 1.230469-12.585938 10.828125-23.035156 23.347656-25.410156l58.554687-11.074219c4.964844.042969 74.894532 1.160156 91.796876 27.363281.5.769531 1.320312 1.273438 2.234374 1.363281.917969.082031 1.8125-.246093 2.449219-.910156.773438-.800781 1.558594-1.609375 2.363281-2.414063 5.949219-5.953124 11.132813-13.007812 15.707032-19.234374 8.023437-10.921876 14.941406-20.351563 21.359375-17.707032 2.464843 1.023438 3.839843 2.640625 4.324219 5.085938 2.054687 10.328125-12.214844 32.246094-26.613282 46.632812-.003906.003906-.003906.007813-.003906.007813zm0 0" fill="#3a312a"/><path d="m165.425781 180.105469c-12.195312-22.183594-44.308593-27.949219-48.597656-25.589844-3.511719 1.929687-16.632813 32.558594-4.441406 54.742187 12.195312 22.183594 29.023437 24.671876 43.667969 16.621094 14.648437-8.050781 21.566406-23.59375 9.371093-45.773437zm0 0" fill="#87796f"/><path d="m168.054688 178.660156c-12.402344-22.566406-45.949219-30.464844-52.671876-26.773437-5.535156 3.039062-18.292968 35.765625-5.621093 58.816406 6.140625 11.167969 13.757812 18.257813 22.640625 21.0625 2.765625.875 5.617187 1.308594 8.519531 1.308594 5.445313 0 11.0625-1.535157 16.582031-4.566407 18.25-10.03125 22.195313-28.667968 10.550782-49.847656zm-13.445313 44.589844c-6.984375 3.839844-14.039063 4.804688-20.402344 2.796875-7.359375-2.324219-13.820312-8.460937-19.191406-18.234375-10.867187-19.769531-.027344-47.175781 3.328125-50.671875 4.171875-1.085937 33.050781 3.675781 44.449219 24.410156 10.132812 18.421875 7.222656 33.230469-8.183594 41.699219zm0 0" fill="#3a312a"/><path d="m152.753906 184.515625c-6.863281-12.488281-24.9375-15.730469-27.351562-14.402344-1.976563 1.085938-9.363282 18.324219-2.496094 30.8125 6.863281 12.484375 16.332031 13.886719 24.574219 9.351563 8.242187-4.527344 12.136719-13.277344 5.273437-25.761719zm0 0" fill="#f16c7a"/><path d="m155.382812 183.070312c-4.140624-7.539062-11.46875-11.628906-16.886718-13.730468-5.058594-1.964844-11.765625-3.382813-14.539063-1.855469-2.769531 1.523437-5.136719 8.703125-6.054687 13.15625-1.1875 5.78125-1.742188 14.242187 2.375 21.730469 3.625 6.59375 8.167968 10.792968 13.5 12.472656 1.6875.535156 3.425781.800781 5.191406.800781 3.285156 0 6.65625-.917969 9.964844-2.738281 10.984375-6.039062 13.398437-17.195312 6.449218-29.835938zm-9.347656 24.582032c-2.515625 1.382812-6.367187 2.757812-10.457031 1.46875-3.808594-1.203125-7.191406-4.445313-10.046875-9.640625-5.429688-9.878907-.5625-23.644531 1.4375-26.65625 3.492188-.128907 17.578125 2.988281 23.15625 13.136719 5.292969 9.628906 3.839844 17.332031-4.089844 21.691406zm0 0" fill="#3a312a"/><path d="m277.976562 154.515625c-4.289062-2.359375-36.402343 3.40625-48.597656 25.589844-12.195312 22.183593-5.277344 37.722656 9.367188 45.773437 14.644531 8.050782 31.472656 5.5625 43.667968-16.621094 12.195313-22.183593-.925781-52.816406-4.4375-54.742187zm0 0" fill="#87796f"/><path d="m279.421875 151.886719c-6.714844-3.695313-40.265625 4.210937-52.671875 26.773437-11.644531 21.179688-7.699219 39.816406 10.550781 49.847656 5.523438 3.035157 11.132813 4.570313 16.582031 4.570313 2.902344 0 5.753907-.433594 8.523438-1.308594 8.878906-2.808593 16.5-9.894531 22.636719-21.066406 12.671875-23.050781-.085938-55.777344-5.621094-58.816406zm.363281 55.925781c-5.371094 9.773438-11.828125 15.910156-19.1875 18.234375-6.371094 2.007813-13.421875 1.042969-20.40625-2.796875-15.40625-8.46875-18.3125-23.277344-8.183594-41.699219 10.445313-19 35.574219-24.59375 42.84375-24.59375.703126 0 1.246094.054688 1.582032.152344 3.328125 3.382813 14.25 30.882813 3.351562 50.703125zm0 0" fill="#3a312a"/><path d="m269.402344 170.113281c-2.414063-1.328125-20.488282 1.917969-27.355469 14.402344-6.863281 12.484375-2.96875 21.230469 5.273437 25.761719 8.242188 4.535156 17.714844 3.132812 24.578126-9.351563 6.863281-12.488281-.519532-29.726562-2.496094-30.8125zm0 0" fill="#f16c7a"/><path d="m276.90625 180.640625c-.917969-4.457031-3.289062-11.632813-6.058594-13.15625-4.171875-2.296875-23.953125 1.992187-31.425781 15.585937-6.949219 12.640626-4.535156 23.792969 6.457031 29.835938 3.304688 1.820312 6.675782 2.738281 9.960938 2.738281 1.761718 0 3.503906-.269531 5.191406-.800781 5.332031-1.683594 9.875-5.878906 13.496094-12.472656 4.117187-7.488282 3.566406-15.949219 2.378906-21.730469zm-7.636719 18.839844c-2.855469 5.195312-6.234375 8.4375-10.046875 9.640625-4.082031 1.292968-7.9375-.085938-10.457031-1.46875-7.929687-4.359375-9.382813-12.0625-4.089844-21.691406 5.582031-10.148438 19.664063-13.320313 23.15625-13.136719 2.003907 3.011719 6.867188 16.777343 1.4375 26.65625zm0 0" fill="#3a312a"/><path d="m273 266.320312c-.136719-.160156-.277344-.320312-.425781-.476562.15625-2.179688.238281-4.363281.238281-6.582031 0-8.996094-1.316406-17.667969-3.769531-25.773438-9.929688-33.039062-38.453125-56.902343-72.09375-56.902343-33.644531 0-62.167969 23.863281-72.105469 56.910156-2.441406 8.105468-3.757812 16.765625-3.757812 25.765625 0 2.414062.097656 4.800781.285156 7.15625.007812.117187.019531.226562.03125.34375-6.375 7.21875-9.996094 15.449219-9.996094 24.199219 0 28.546874 38.5 42.5 86 42.5 47.496094 0 86-13.953126 86-42.5-.003906-8.933594-3.773438-17.316407-10.40625-24.640626zm0 0" fill="#fce8cb"/><path d="m275.652344 264.78125c.105468-1.832031.160156-3.683594.160156-5.519531 0-9.132813-1.3125-18.097657-3.898438-26.636719-10.609374-35.308594-40.738281-59.035156-74.96875-59.035156-34.226562 0-64.355468 23.730468-74.976562 59.042968-2.578125 8.554688-3.886719 17.515626-3.886719 26.628907 0 2.140625.078125 4.320312.226563 6.492187-6.484375 7.722656-9.90625 16.414063-9.90625 25.210938 0 28.066406 34.101562 45.5 89 45.5 54.894531 0 89-17.433594 89-45.5 0-9.183594-3.714844-18.222656-10.75-26.183594zm-78.25 65.683594c-50.421875 0-83-15.503906-83-39.5 0-7.796875 3.109375-15.269532 9.246094-22.210938.542968-.613281.78125-1.757812.710937-2.574218-.183594-2.3125-.277344-4.640626-.277344-6.917969 0-8.527344 1.222657-16.902344 3.632813-24.898438 9.851562-32.761719 37.671875-54.777343 69.230468-54.777343 31.5625 0 59.382813 22.007812 69.226563 54.769531 2.414063 7.984375 3.640625 16.363281 3.640625 24.90625 0 2.121093-.078125 4.257812-.230469 6.363281-.058593.835938.230469 1.660156.804688 2.269531l.390625.4375c6.386718 7.054688 9.625 14.667969 9.625 22.628907 0 24-32.578125 39.503906-83 39.503906zm0 0" fill="#3a312a"/><path d="m196.945312 176.441406c-41.894531 0-75.863281 37.015625-75.863281 82.675782 0 2.492187.109375 4.949218.304688 7.382812 1.308593-1.640625 6.316406-7.191406 13.625-12.09375 4.046875-2.714844 6.246093-7.351562 6.007812-12.21875-.023437-.464844-.035156-.9375-.035156-1.410156 0-13.9375 9.96875-25.238282 22.269531-25.238282 10.679688 0 19.609375 8.523438 21.765625 19.894532.167969.597656.324219 1.203125.46875 1.8125 1.296875 5.417968 6.039063 9.304687 11.609375 9.304687h.117188c5.5625 0 10.382812-3.859375 11.597656-9.289062.578125-2.59375 1.367188-5.125 2.542969-7.539063.285156-.597656.613281-1.148437.960937-1.664062 0-.007813 0-.019532.019532-.03125 3.851562-7.46875 11.015624-12.488282 19.210937-12.488282 12.304687 0 22.273437 11.300782 22.273437 25.238282 0 .570312-.019531 1.136718-.050781 1.699218-.277343 4.722657 1.953125 9.191407 5.910157 11.792969 6.796874 4.472657 11.464843 9.433594 12.914062 11.203125.148438-2.097656.21875-4.214844.21875-6.355468 0-45.660157-33.96875-82.675782-75.867188-82.675782zm0 0" fill="#87796f"/><path d="m196.945312 173.441406c-43.488281 0-78.863281 38.433594-78.863281 85.671875 0 2.476563.105469 5.042969.316407 7.628907.101562 1.226562.9375 2.265624 2.117187 2.625.285156.085937.582031.128906.875.128906.898437 0 1.765625-.402344 2.347656-1.128906.046875-.058594 4.878907-6.0625 12.949219-11.472657 4.886719-3.277343 7.625-8.828125 7.332031-14.851562-.019531-.421875-.03125-.84375-.03125-1.269531 0-12.261719 8.644531-22.238282 19.269531-22.238282 8.984376 0 16.902344 7.339844 18.820313 17.453125.015625.082031.03125.164063.054687.246094.15625.566406.304688 1.132813.441407 1.707031 1.636719 6.832032 7.609375 11.605469 14.644531 11.605469 7.019531 0 12.992188-4.78125 14.527344-11.628906.59375-2.660157 1.351562-4.910157 2.3125-6.894531.207031-.425782.460937-.859376.75-1.292969.015625-.019531.027344-.042969.042968-.0625.054688-.085938.105469-.175781.15625-.269531 3.449219-6.703126 9.789063-10.863282 16.542969-10.863282 10.625 0 19.269531 9.976563 19.269531 22.238282 0 .511718-.015624 1.023437-.042968 1.523437-.339844 5.761719 2.441406 11.308594 7.253906 14.472656 7.628906 5.015625 12.0625 10.375 12.246094 10.597657.777344.953124 2.0625 1.332031 3.230468.960937 1.171876-.375 1.996094-1.421875 2.082032-2.648437.152344-2.113282.226562-4.320313.226562-6.566407-.003906-47.238281-35.382812-85.671875-78.871094-85.671875zm64.382813 78.316406c-3.074219-2.019531-4.78125-5.425781-4.5625-9.113281.035156-.617187.054687-1.242187.054687-1.871093 0-15.570313-11.339843-28.238282-25.273437-28.238282-8.957031 0-17.292969 5.347656-21.796875 13.964844-.417969.628906-.785156 1.269531-1.089844 1.90625-1.167968 2.398438-2.074218 5.082031-2.773437 8.199219-.917969 4.085937-4.480469 6.941406-8.789063 6.941406-4.128906 0-7.703125-2.878906-8.6875-7.003906-.144531-.601563-.300781-1.203125-.464844-1.796875-2.5-12.875-12.863281-22.210938-24.691406-22.210938-13.933594 0-25.269531 12.667969-25.269531 28.238282 0 .523437.011719 1.042968.039063 1.5625.1875 3.902343-1.558594 7.484374-4.679688 9.578124-3.785156 2.535157-6.910156 5.179688-9.261719 7.398438v-.195312c0-43.933594 32.6875-79.675782 72.863281-79.675782 39.941407 0 72.484376 35.328125 72.863282 78.90625-2.304688-2.089844-5.1875-4.421875-8.480469-6.589844zm0 0" fill="#3a312a"/><path d="m197.433594 260.816406c-6.734375-.03125-12.207032 3.21875-12.226563 7.261719-.015625 4.039063 5.414063 10.589844 12.148438 10.621094s12.226562-6.472657 12.242187-10.515625c.015625-4.039063-5.429687-7.339844-12.164062-7.367188zm0 0" fill="#3a312a"/><path d="m197.402344 275.070312c0 8.699219-6.59375 15.84375-15.054688 16.726563.160156 10.480469 6.839844 18.902344 15.054688 18.902344s14.894531-8.421875 15.054687-18.902344c-8.460937-.882813-15.054687-8.027344-15.054687-16.726563zm0 0" fill="#f16c7a"/><g fill="#3a312a"><path d="m212.765625 288.8125c-7.046875-.734375-12.363281-6.640625-12.363281-13.742188 0-1.660156-1.34375-3-3-3s-3 1.339844-3 3c0 7.101563-5.316406 13.007813-12.367188 13.742188-1.542968.160156-2.710937 1.472656-2.6875 3.027344.183594 12.257812 8.113282 21.859375 18.054688 21.859375 9.9375 0 17.867187-9.601563 18.050781-21.859375.023437-1.554688-1.140625-2.867188-2.6875-3.027344zm-15.363281 18.886719c-5.878906 0-10.859375-5.828125-11.871094-13.429688 5.023438-1.28125 9.230469-4.449219 11.871094-8.679687 2.640625 4.234375 6.84375 7.402344 11.871094 8.679687-1.011719 7.601563-5.992188 13.429688-11.871094 13.429688zm0 0"/><path d="m197.402344 272.070312c-1.65625 0-3 1.339844-3 3 0 7.101563-5.316406 13.007813-12.40625 13.746094-.46875.054688-.945313.078125-1.417969.078125-7.625 0-13.828125-6.203125-13.828125-13.824219 0-1.660156-1.339844-3-3-3-1.65625 0-3 1.339844-3 3 0 10.929688 8.894531 19.824219 19.828125 19.824219.710937 0 1.421875-.035156 2.082031-.113281 10.113282-1.054688 17.742188-9.527344 17.742188-19.710938 0-1.660156-1.34375-3-3-3zm0 0"/><path d="m231.054688 272.070312c-1.660157 0-3 1.339844-3 3 0 7.621094-6.203126 13.824219-13.828126 13.824219-.472656 0-.949218-.023437-1.460937-.082031-7.046875-.734375-12.363281-6.640625-12.363281-13.742188 0-1.660156-1.34375-3-3-3s-3 1.339844-3 3c0 10.183594 7.628906 18.65625 17.699218 19.707032.699219.082031 1.414063.121094 2.125.121094 10.933594 0 19.828126-8.894532 19.828126-19.828126 0-1.660156-1.34375-3-3-3zm0 0"/></g><path d="m147.914062 256.609375c-8.746093 0-15.835937 4.433594-15.835937 9.898437 0 5.46875 7.089844 9.898438 15.835937 9.898438 8.746094 0 15.835938-4.429688 15.835938-9.898438 0-5.464843-7.089844-9.898437-15.835938-9.898437zm0 0" fill="#f5978a"/><path d="m262.726562 266.507812c0-5.464843-7.089843-9.898437-15.835937-9.898437s-15.835937 4.433594-15.835937 9.898437c0 5.46875 7.089843 9.898438 15.835937 9.898438s15.835937-4.429688 15.835937-9.898438zm0 0" fill="#f5978a"/><path d="m171.667969 239.929688c-3.824219 0-6.925781 3.101562-6.925781 6.929687 0 3.824219 3.101562 6.925781 6.925781 6.925781 3.828125 0 6.929687-3.101562 6.929687-6.925781 0-3.828125-3.101562-6.929687-6.929687-6.929687zm0 0" fill="#3a312a"/><path d="m223.136719 239.929688c-3.828125 0-6.929688 3.101562-6.929688 6.929687 0 3.824219 3.101563 6.925781 6.929688 6.925781 3.824219 0 6.925781-3.101562 6.925781-6.925781 0-3.828125-3.101562-6.929687-6.925781-6.929687zm0 0" fill="#3a312a"/><path d="m307.386719 62.554688c-6.214844-38.285157-42.285157-64.28125-80.570313-58.070313-38.28125 6.214844-64.28125 42.285156-58.066406 80.570313 6.210938 38.28125 42.285156 64.28125 80.566406 58.066406 38.285156-6.210938 64.28125-42.285156 58.070313-80.566406zm0 0" fill="#d7e057"/><path d="m238.0625.582031c-40.375 0-73.222656 32.847657-73.222656 73.226563 0 40.375 32.847656 73.222656 73.222656 73.222656s73.222656-32.847656 73.222656-73.222656c0-40.378906-32.847656-73.226563-73.222656-73.226563zm0 140.449219c-37.066406 0-67.222656-30.15625-67.222656-67.222656 0-37.070313 30.15625-67.226563 67.222656-67.226563s67.222656 30.160157 67.222656 67.226563c0 37.0625-30.15625 67.222656-67.222656 67.222656zm0 0" fill="#3a312a"/><path d="m253.207031 58.660156v-29.027344h-30.289062v29.027344h-29.035157v30.292969h29.035157v29.03125h30.289062v-29.03125h29.035157v-30.292969zm0 0" fill="#fce8cb"/><path d="m282.238281 55.660156h-26.03125v-26.027344c0-1.660156-1.339843-3-3-3h-30.289062c-1.660157 0-3 1.339844-3 3v26.03125h-26.03125c-1.660157 0-3 1.339844-3 3v30.289063c0 1.660156 1.339843 3 3 3h26.03125v26.03125c0 1.660156 1.339843 3 3 3h30.289062c1.660157 0 3-1.339844 3-3v-26.03125h26.03125c1.65625 0 3-1.339844 3-3v-30.292969c0-1.65625-1.34375-3-3-3zm-3 30.292969h-26.03125c-1.65625 0-3 1.34375-3 3v26.03125h-24.289062v-26.03125c0-1.65625-1.34375-3-3-3h-26.03125v-24.292969h26.03125c1.65625 0 3-1.339844 3-3v-26.027344h24.289062v26.03125c0 1.65625 1.34375 3 3 3h26.03125zm0 0" fill="#3a312a"/><path d="m307.601562 96.710938c-2.121093 6.421874-5.097656 12.460937-8.820312 17.960937l94.152344 79.863281c8.328125 7.0625 13.128906 17.429688 13.128906 28.351563v223.144531h30v-240.359375zm0 0" fill="#6ca8bf"/></svg>