<svg height="458pt" viewBox="0 -2 458.38642 458" width="458pt" xmlns="http://www.w3.org/2000/svg"><path d="m424.257812 170.054688c-29.230468-16.242188-66.089843-5.710938-82.332031 23.519531-1.105469 1.988281-2.0625 4.019531-2.921875 6.070312l-73.53125-40.851562-25.371094-14.097657-78.503906-43.617187c1.808594-2.351563 3.515625-4.8125 5-7.484375 16.238282-29.226562 5.710938-66.089844-23.519531-82.328125-29.230469-16.242187-66.089844-5.710937-82.332031 23.519531-10.605469 19.09375-9.730469 41.414063.257812 59.144532-20.332031.886718-39.746094 11.929687-50.355468 31.027343-16.238282 29.226563-5.710938 66.089844 23.519531 82.328125 29.230469 16.238282 66.089843 5.710938 82.332031-23.519531 1.484375-2.671875 2.667969-5.421875 3.710938-8.199219l178.007812 98.898438c-2.363281 2.847656-4.527344 5.925781-6.390625 9.277344-16.238281 29.230468-5.710937 66.089843 23.519531 82.328124 29.230469 16.242188 66.089844 5.710938 82.332032-23.519531 10.605468-19.09375 9.730468-41.414062-.257813-59.144531 20.332031-.886719 39.746094-11.929688 50.355469-31.023438 16.238281-29.230468 5.710937-66.089843-23.519532-82.328124zm0 0" fill="#fce8cb"/><path d="m425.714844 167.429688c-14.839844-8.242188-31.996094-10.214844-48.320313-5.550782-16.320312 4.660156-29.847656 15.402344-38.09375 30.238282-.589843 1.0625-1.15625 2.164062-1.703125 3.316406l-70.667968-39.261719c-1.449219-.804687-3.273438-.285156-4.082032 1.164063-.800781 1.449218-.28125 3.273437 1.167969 4.082031l73.53125 40.851562c.746094.417969 1.628906.492188 2.4375.214844.804687-.28125 1.453125-.890625 1.785156-1.675781.890625-2.121094 1.796875-4.007813 2.777344-5.773438 7.464844-13.4375 19.714844-23.164062 34.496094-27.386718 14.785156-4.222657 30.320312-2.433594 43.757812 5.027343 13.433594 7.464844 23.160157 19.71875 27.382813 34.496094 4.222656 14.78125 2.433594 30.320313-5.027344 43.753906-9.769531 17.582031-27.664062 28.605469-47.863281 29.484375-1.042969.046875-1.988281.628906-2.492188 1.542969-.507812.914063-.503906 2.023437.007813 2.929687 9.921875 17.617188 10.015625 38.628907.246094 56.214844-15.410157 27.738282-50.511719 37.769532-78.25 22.355469-27.738282-15.410156-37.765626-50.515625-22.355469-78.25 1.6875-3.042969 3.675781-5.929687 6.074219-8.820313.570312-.6875.804687-1.59375.636718-2.46875-.164062-.875-.710937-1.632812-1.492187-2.070312l-178.003907-98.894531c-.761718-.425781-1.671874-.496094-2.492187-.195313-.820313.300782-1.464844.945313-1.773437 1.757813-1.144532 3.050781-2.265626 5.527343-3.523438 7.796875-15.414062 27.738281-50.515625 37.769531-78.253906 22.355468-27.730469-15.410156-37.761719-50.515624-22.351563-78.25 9.773438-17.585937 27.664063-28.605468 47.863281-29.484374 1.042969-.042969 1.984376-.628907 2.492188-1.539063.507812-.914063.503906-2.019531-.007812-2.929687-9.925782-17.621094-10.019532-38.632813-.25-56.21875 15.410156-27.734376 50.511718-37.765626 78.25-22.355469 27.738281 15.414062 37.769531 50.515625 22.359374 78.253906-1.257812 2.257813-2.769531 4.519531-4.757812 7.113281-.535156.691406-.734375 1.582032-.558594 2.433594.175782.855469.71875 1.589844 1.480469 2.015625l78.503906 43.617187c1.449219.804688 3.277344.28125 4.082031-1.167968.800782-1.445313.28125-3.273438-1.167968-4.078125l-75.527344-41.960938c1.226562-1.742187 2.265625-3.394531 3.1875-5.058593 17.019531-30.628907 5.945312-69.394532-24.6875-86.410157-30.625-17.019531-69.390625-5.945312-86.40625 24.683594-10.042969 18.074219-10.652344 39.421875-1.863281 57.96875-20.390625 2.335937-38.195313 14.128906-48.234375 32.203125-8.246094 14.835938-10.214844 31.996094-5.554688 48.316406 4.664063 16.320313 15.402344 29.847656 30.238282 38.09375 30.628906 17.019532 69.390624 5.941406 86.414062-24.6875.925781-1.667968 1.777344-3.421875 2.609375-5.378906l171.949219 95.539062c-1.679688 2.257813-3.179688 4.570313-4.476563 6.90625-17.019531 30.625-5.945312 69.390626 24.683594 86.410157 9.75 5.414062 20.324219 7.984375 30.753906 7.984375 22.347657 0 44.054688-11.792969 55.65625-32.671875 10.039063-18.074219 10.648438-39.421875 1.859375-57.96875 20.394532-2.332031 38.199219-14.128907 48.238282-32.203125 17.019531-30.628906 5.945312-69.390625-24.683594-86.410156zm0 0" fill="#3a312a"/><path d="m422.261719 339.789062c17.34375-10.648437 28.953125-29.730468 28.953125-51.574218 0-33.441406-27.109375-60.546875-60.546875-60.546875s-60.546875 27.105469-60.546875 60.546875c0 2.273437.148437 4.515625.394531 6.726562h-202.949219c.4375-2.9375.738282-5.914062.738282-8.96875 0-33.4375-27.109376-60.546875-60.546876-60.546875s-60.542968 27.109375-60.542968 60.546875c0 21.84375 11.605468 40.925782 28.949218 51.574219-17.34375 10.652344-28.949218 29.734375-28.949218 51.578125 0 33.4375 27.105468 60.542969 60.542968 60.542969s60.546876-27.105469 60.546876-60.542969c0-3.058594-.300782-6.039062-.738282-8.972656h203.632813c-.679688 3.640625-1.074219 7.378906-1.074219 11.214844 0 33.4375 27.105469 60.542968 60.542969 60.542968s60.546875-27.105468 60.546875-60.542968c0-21.84375-11.609375-40.929688-28.953125-51.578126zm0 0" fill="#fce8cb"/><path d="m427.683594 339.789062c16.695312-11.945312 26.53125-30.902343 26.53125-51.574218 0-35.039063-28.507813-63.546875-63.546875-63.546875-35.039063 0-63.546875 28.507812-63.546875 63.546875 0 1.214844.039062 2.449218.121094 3.726562h-196.265626c.21875-2.113281.328126-4.058594.328126-5.96875 0-35.039062-28.507813-63.546875-63.546876-63.546875-35.039062 0-63.546874 28.507813-63.546874 63.546875 0 20.671875 9.835937 39.628906 26.527343 51.574219-16.691406 11.945313-26.523437 30.90625-26.523437 51.578125 0 35.039062 28.503906 63.542969 63.542968 63.542969 35.039063 0 63.546876-28.507813 63.546876-63.542969 0-1.910156-.105469-3.859375-.328126-5.96875h47.953126c1.660156 0 3-1.34375 3-3s-1.339844-3-3-3h-51.363282c-.875 0-1.703125.378906-2.269531 1.042969-.570313.660156-.824219 1.539062-.695313 2.398437.480469 3.222656.703126 5.933594.703126 8.527344 0 31.730469-25.816407 57.542969-57.546876 57.542969-31.730468 0-57.542968-25.8125-57.542968-57.542969 0-20.117188 10.285156-38.441406 27.519531-49.019531.886719-.542969 1.429687-1.515625 1.429687-2.554688 0-1.042969-.542968-2.011719-1.429687-2.558593-17.234375-10.578126-27.519531-28.902344-27.519531-49.015626 0-31.730468 25.8125-57.546874 57.542968-57.546874 31.730469 0 57.546876 25.816406 57.546876 57.546874 0 2.59375-.222657 5.300782-.703126 8.523438-.128906.867188.125 1.742188.695313 2.402344.566406.660156 1.398437 1.042968 2.269531 1.042968h202.949219c.851563 0 1.667969-.363281 2.234375-.996093.570312-.636719.839844-1.484375.746094-2.332031-.25-2.289063-.375-4.378907-.375-6.398438 0-31.730469 25.8125-57.542969 57.546875-57.542969 31.730469 0 57.546875 25.8125 57.546875 57.542969 0 20.113281-10.289063 38.4375-27.523438 49.019531-.886718.542969-1.429687 1.511719-1.429687 2.554688s.542969 2.011719 1.429687 2.554687c17.234375 10.582032 27.523438 28.90625 27.523438 49.023438 0 31.726562-25.816406 57.542968-57.546875 57.542968s-57.546875-25.816406-57.546875-57.542968c0-3.4375.347656-7.023438 1.027344-10.660156.167968-.875-.070313-1.78125-.640626-2.46875-.570312-.6875-1.414062-1.082032-2.308593-1.082032h-123.703125c-1.65625 0-3 1.34375-3 3s1.34375 3 3 3h120.183594c-.371094 2.789063-.558594 5.539063-.558594 8.210938 0 35.039062 28.507812 63.542968 63.546875 63.542968 35.035156 0 63.546875-28.507812 63.546875-63.542968 0-20.679688-9.835938-39.632813-26.53125-51.582032zm0 0" fill="#3a312a"/><path d="m423.304688 22.550781c-1.949219 23.125-26.050782 26.777344-26.050782 26.777344 20.691406.976563 25.847656 28.121094 25.847656 28.121094.445313-19.355469 26.644532-28.40625 26.644532-28.40625-19.628906-1.175781-26.441406-26.492188-26.441406-26.492188zm0 0" fill="#d7e057"/><path d="m449.925781 46.046875c-17.210937-1.027344-23.664062-24.046875-23.726562-24.28125-.378907-1.402344-1.691407-2.3125-3.167969-2.203125-1.449219.132812-2.59375 1.285156-2.714844 2.734375-1.722656 20.429687-22.628906 23.925781-23.507812 24.0625-1.527344.230469-2.628906 1.582031-2.546875 3.125.078125 1.539063 1.3125 2.765625 2.851562 2.839844 18.058594.851562 23 25.4375 23.046875 25.683593.273438 1.421876 1.519532 2.433594 2.945313 2.433594.082031 0 .167969 0 .25-.007812 1.53125-.128906 2.714843-1.386719 2.75-2.917969.390625-17.015625 24.382812-25.554687 24.628906-25.636719 1.347656-.472656 2.183594-1.832031 1.988281-3.246094-.203125-1.417968-1.371094-2.5-2.796875-2.585937zm-27.132812 20.691406c-2.714844-6.261719-7.417969-13.816406-15.175781-17.753906 5.863281-2.808594 12.820312-7.824219 16.40625-16.546875 3.101562 6.144531 8.398437 13.761719 16.667968 17.445312-6.015625 3.28125-13.84375 8.8125-17.898437 16.855469zm0 0" fill="#3a312a"/><path d="m379.90625 56.511719c-1.378906 16.359375-18.425781 18.941406-18.425781 18.941406 14.636719.6875 18.285156 19.886719 18.285156 19.886719.3125-13.6875 18.84375-20.089844 18.84375-20.089844-13.882813-.832031-18.703125-18.738281-18.703125-18.738281zm0 0" fill="#d7e057"/><path d="m398.789062 72.253906c-11.53125-.691406-15.945312-16.371094-15.988281-16.527344-.378906-1.40625-1.703125-2.332031-3.164062-2.207031-1.453125.132813-2.597657 1.289063-2.71875 2.738281-1.160157 13.742188-15.292969 16.132813-15.886719 16.226563-1.523438.230469-2.625 1.582031-2.542969 3.121094.078125 1.542969 1.3125 2.769531 2.855469 2.84375 12.070312.566406 15.445312 17.289062 15.476562 17.449219.269532 1.425781 1.519532 2.441406 2.945313 2.441406.082031 0 .164063-.003906.25-.011719 1.53125-.125 2.714844-1.386719 2.75-2.921875.261719-11.417969 16.664063-17.265625 16.828125-17.324219 1.351562-.464843 2.1875-1.824219 1.992188-3.242187-.199219-1.417969-1.367188-2.5-2.796876-2.585938zm-19.171874 13.589844c-1.847657-3.769531-4.679688-7.890625-8.890626-10.558594 3.710938-2.082031 7.390626-5.257812 9.738282-9.832031 2.113281 3.75 5.308594 7.90625 9.882812 10.445313-3.699218 2.199218-7.976562 5.480468-10.730468 9.945312zm0 0" fill="#3a312a"/><path d="m379.90625 3.195312c-1.378906 16.359376-18.425781 18.941407-18.425781 18.941407 14.636719.6875 18.285156 19.886719 18.285156 19.886719.3125-13.6875 18.84375-20.089844 18.84375-20.089844-13.882813-.832032-18.703125-18.738282-18.703125-18.738282zm0 0" fill="#d7e057"/><path d="m398.789062 18.9375c-11.535156-.6875-15.945312-16.371094-15.988281-16.527344-.378906-1.40625-1.703125-2.3359372-3.164062-2.203125-1.453125.128907-2.597657 1.285157-2.71875 2.734375-1.160157 13.742188-15.292969 16.132813-15.886719 16.226563-1.523438.230469-2.625 1.582031-2.542969 3.125.078125 1.539062 1.3125 2.765625 2.855469 2.839843 12.070312.570313 15.445312 17.289063 15.476562 17.453126.269532 1.425781 1.519532 2.4375 2.945313 2.4375.082031 0 .164063 0 .25-.007813 1.53125-.125 2.714844-1.386719 2.75-2.921875.261719-11.417969 16.664063-17.269531 16.828125-17.324219 1.351562-.46875 2.1875-1.828125 1.992188-3.246093-.199219-1.417969-1.367188-2.5-2.796876-2.585938zm-19.171874 13.59375c-1.847657-3.773438-4.679688-7.894531-8.890626-10.5625 3.710938-2.082031 7.390626-5.257812 9.738282-9.832031 2.113281 3.75 5.308594 7.910156 9.882812 10.449219-3.699218 2.199218-7.976562 5.476562-10.730468 9.945312zm0 0" fill="#3a312a"/><g fill="#decaad"><path d="m422.792969 172.683594c-13.160157-7.339844-28.378907-9.199219-42.898438-5.257813 4.4375 1.199219 8.777344 2.960938 12.898438 5.257813 21.898437 12.160156 32.78125 36.621094 28.761719 60.023437 8.9375 5 16.558593 12.078125 22.179687 20.597657.480469-.78125.980469-1.558594 1.417969-2.378907 15.421875-27.742187 5.378906-62.839843-22.359375-78.242187zm0 0"/><path d="m420.691406 342.34375c-.878906-.539062-1.4375-1.519531-1.4375-2.558594 0-1.039062.558594-2 1.4375-2.558594 17.242188-10.582031 27.523438-28.902343 27.523438-49.019531 0-31.722656-25.820313-57.542969-57.542969-57.542969-5.179687 0-10.21875.703126-15 2 24.480469 6.601563 42.542969 29 42.542969 55.542969 0 20.117188-10.28125 38.4375-27.523438 49.019531-.878906.558594-1.4375 1.519532-1.4375 2.558594 0 1.039063.558594 2.019532 1.4375 2.558594 17.242188 10.582031 27.523438 28.902344 27.523438 49.023438 0 26.539062-18.0625 48.9375-42.542969 55.539062 4.78125 1.320312 9.820313 2 15 2 31.722656 0 57.542969-25.800781 57.542969-57.539062 0-20.125-10.28125-38.441407-27.523438-49.023438zm0 0"/></g></svg>