<svg height="450pt" viewBox="0 0 450.38 450" width="450pt" xmlns="http://www.w3.org/2000/svg"><path d="m395.089844 163.726562c-1.949219 23.128907-26.050782 26.78125-26.050782 26.78125 20.695313.976563 25.851563 28.117188 25.851563 28.117188.441406-19.351562 26.640625-28.402344 26.640625-28.402344-19.625-1.175781-26.441406-26.496094-26.441406-26.496094zm0 0" fill="#d7e057"/><path d="m421.714844 187.226562c-17.207032-1.027343-23.664063-24.046874-23.726563-24.28125-.378906-1.402343-1.699219-2.316406-3.167969-2.203124-1.449218.132812-2.597656 1.285156-2.71875 2.734374-1.71875 20.429688-22.625 23.929688-23.507812 24.066407-1.527344.230469-2.625 1.578125-2.546875 3.121093.082031 1.539063 1.316406 2.769532 2.855469 2.84375 18.054687.847657 22.996094 25.433594 23.046875 25.683594.273437 1.421875 1.519531 2.433594 2.945312 2.433594.082031 0 .167969-.003906.25-.011719 1.53125-.125 2.714844-1.386719 2.75-2.917969.386719-17.015624 24.382813-25.554687 24.628907-25.636718 1.351562-.46875 2.183593-1.828125 1.988281-3.246094-.203125-1.417969-1.371094-2.5-2.796875-2.585938zm-27.136719 20.691407c-2.710937-6.261719-7.417969-13.8125-15.171875-17.75 5.863281-2.8125 12.816406-7.828125 16.402344-16.546875 3.101562 6.140625 8.398437 13.757812 16.667968 17.445312-6.011718 3.277344-13.84375 8.808594-17.898437 16.851563zm0 0" fill="#3a312a"/><path d="m351.691406 197.691406c-1.378906 16.355469-18.421875 18.941406-18.421875 18.941406 14.632813.6875 18.28125 19.886719 18.28125 19.886719.3125-13.6875 18.84375-20.089843 18.84375-20.089843-13.878906-.832032-18.703125-18.738282-18.703125-18.738282zm0 0" fill="#d7e057"/><path d="m370.574219 213.433594c-11.53125-.6875-15.945313-16.367188-15.988281-16.527344-.378907-1.402344-1.726563-2.320312-3.160157-2.203125-1.453125.128906-2.601562 1.285156-2.722656 2.734375-1.15625 13.742188-15.292969 16.136719-15.882813 16.230469-1.527343.230469-2.625 1.578125-2.546874 3.121093.082031 1.539063 1.316406 2.765626 2.855468 2.839844 12.070313.570313 15.445313 17.289063 15.476563 17.453125.273437 1.425781 1.519531 2.441407 2.945312 2.441407.082031 0 .167969-.003907.25-.011719 1.53125-.125 2.71875-1.386719 2.753907-2.921875.257812-11.417969 16.664062-17.265625 16.824218-17.324219 1.351563-.46875 2.1875-1.824219 1.992188-3.242187-.195313-1.421876-1.367188-2.503907-2.796875-2.589844zm-19.167969 13.589844c-1.847656-3.769532-4.679688-7.894532-8.894531-10.558594 3.710937-2.082032 7.394531-5.261719 9.742187-9.835938 2.113282 3.75 5.308594 7.910156 9.878906 10.449219-3.695312 2.203125-7.976562 5.480469-10.726562 9.945313zm0 0" fill="#3a312a"/><path d="m351.691406 144.375c-1.378906 16.359375-18.421875 18.941406-18.421875 18.941406 14.632813.6875 18.28125 19.886719 18.28125 19.886719.3125-13.6875 18.84375-20.089844 18.84375-20.089844-13.878906-.828125-18.703125-18.738281-18.703125-18.738281zm0 0" fill="#d7e057"/><path d="m370.574219 160.117188c-11.53125-.6875-15.945313-16.367188-15.988281-16.527344-.378907-1.402344-1.726563-2.320313-3.160157-2.203125-1.453125.128906-2.601562 1.285156-2.722656 2.734375-1.15625 13.742187-15.292969 16.132812-15.882813 16.226562-1.527343.230469-2.625 1.582032-2.546874 3.121094.082031 1.542969 1.316406 2.769531 2.855468 2.84375 12.070313.566406 15.445313 17.289062 15.476563 17.453125.273437 1.425781 1.519531 2.4375 2.945312 2.4375.082031 0 .167969 0 .25-.007813 1.53125-.125 2.71875-1.390624 2.753907-2.921874.257812-11.417969 16.664062-17.269532 16.824218-17.324219 1.351563-.46875 2.1875-1.828125 1.992188-3.246094-.195313-1.414063-1.367188-2.5-2.796875-2.585937zm-19.167969 13.589843c-1.847656-3.769531-4.679688-7.890625-8.894531-10.558593 3.710937-2.082032 7.394531-5.257813 9.742187-9.832032 2.113282 3.75 5.308594 7.90625 9.878906 10.449219-3.695312 2.199219-7.976562 5.480469-10.726562 9.941406zm0 0" fill="#3a312a"/><path d="m443.824219 398.125-73.804688-73.804688c-4.75-4.75-12.457031-4.75-17.207031 0l-28.617188 28.621094c-4.75 4.75-4.75 12.453125 0 17.203125l73.804688 73.804688c4.75 4.75 12.453125 4.75 17.203125 0l28.621094-28.617188c4.75-4.75 4.75-12.457031 0-17.207031zm0 0" fill="#8ac6dd"/><path d="m445.945312 396.003906-73.804687-73.804687c-2.863281-2.863281-6.671875-4.441407-10.722656-4.441407s-7.859375 1.578126-10.722657 4.441407l-28.621093 28.621093c-5.910157 5.914063-5.910157 15.53125 0 21.445313l73.808593 73.804687c2.863282 2.863282 6.671876 4.441407 10.722657 4.441407 4.046875 0 7.859375-1.578125 10.71875-4.441407l28.621093-28.621093c5.914063-5.910157 5.914063-15.53125 0-21.445313zm-4.242187 17.203125-28.617187 28.621094c-1.730469 1.730469-4.035157 2.683594-6.480469 2.683594-2.449219 0-4.75-.953125-6.480469-2.683594l-73.808594-73.804687c-3.570312-3.574219-3.570312-9.390626 0-12.964844l28.621094-28.617188c1.730469-1.734375 4.035156-2.683594 6.480469-2.683594 2.449219 0 4.75.953126 6.480469 2.683594l73.804687 73.804688c3.574219 3.574218 3.574219 9.390625 0 12.960937zm0 0" fill="#3a312a"/><path d="m277.515625 140.382812c0 75.804688-61.453125 137.257813-137.257813 137.257813-75.804687 0-137.257812-61.453125-137.257812-137.257813 0-75.804687 61.453125-137.257812 137.257812-137.257812 75.804688 0 137.257813 61.453125 137.257813 137.257812zm0 0" fill="#8ac6dd"/><path d="m239.433594 41.203125c-54.6875-54.683594-143.667969-54.683594-198.355469 0-26.488281 26.492187-41.078125 61.714844-41.078125 99.179687 0 37.464844 14.589844 72.6875 41.082031 99.175782 27.347657 27.347656 63.257813 41.019531 99.175781 41.015625 35.914063-.003907 71.839844-13.675781 99.175782-41.015625 26.492187-26.488282 41.082031-61.710938 41.082031-99.175782 0-37.464843-14.589844-72.6875-41.082031-99.179687zm-4.242188 194.113281c-25.355468 25.359375-59.074218 39.324219-94.933594 39.324219-35.863281 0-69.574218-13.964844-94.933593-39.324219s-39.324219-59.070312-39.324219-94.933594c0-35.863281 13.964844-69.578124 39.324219-94.933593 25.359375-25.359375 59.074219-39.324219 94.933593-39.324219 35.863282 0 69.578126 13.964844 94.933594 39.324219 25.359375 25.355469 39.324219 59.074219 39.324219 94.933593 0 35.863282-13.964844 69.574219-39.324219 94.933594zm0 0" fill="#3a312a"/><path d="m250.578125 222.054688c-3.980469 5.367187-8.394531 10.503906-13.273437 15.378906-4.875 4.875-10.011719 9.292968-15.378907 13.273437l43.304688 43.292969 20.796875 20.789062 38.164062 38.152344 28.621094-28.621094zm0 0" fill="#87796f"/><path d="m354.9375 322.195312-102.234375-102.261718c-.617187-.617188-1.464844-.9375-2.34375-.875-.871094.066406-1.667969.507812-2.1875 1.207031-3.933594 5.300781-8.300781 10.363281-12.984375 15.046875-4.695312 4.691406-9.753906 9.058594-15.046875 12.984375-.703125.519531-1.140625 1.316406-1.203125 2.1875-.066406.871094.253906 1.726563.871094 2.34375l43.304687 43.292969c1.171875 1.171875 3.070313 1.171875 4.242188 0s1.171875-3.074219 0-4.242188l-40.875-40.867187c4.53125-3.539063 8.875-7.382813 12.953125-11.460938 4.070312-4.070312 7.914062-8.417969 11.457031-12.949219l97.683594 97.714844-24.378907 24.378906-36.042968-36.03125c-1.171875-1.167968-3.070313-1.167968-4.242188 0-1.171875 1.171876-1.171875 3.074219 0 4.246094l38.164063 38.148438c.585937.585937 1.355469.878906 2.121093.878906.765626 0 1.535157-.289062 2.121094-.878906l28.625-28.621094c1.167969-1.167969 1.167969-3.070312-.003906-4.242188zm0 0" fill="#3a312a"/><path d="m238.839844 127.285156v-.019531c-.980469-7.5-2.820313-14.882813-5.539063-22.019531-1.199219-3.222656-2.582031-6.382813-4.140625-9.480469-.480468-.960937-.980468-1.921875-1.519531-2.859375-4-7.402344-9.019531-14.402344-15.0625-20.78125-.65625-.699219-1.316406-1.378906-2-2.058594-3.277344-3.28125-6.738281-6.28125-10.339844-9.023437-38.976562-29.539063-94.738281-26.539063-130.296875 9.023437-22.382812 22.378906-31.882812 52.796875-28.441406 81.976563.121094 1 .238281 1.980469.398438 2.980469 1.179687 8.222656 3.441406 16.300781 6.722656 24.0625 2.398437 5.738281 5.398437 11.257812 8.898437 16.539062.378907.539062.761719 1.097656 1.140625 1.660156 3.300782 4.71875 7.058594 9.199219 11.28125 13.417969 5.699219 5.703125 11.917969 10.5625 18.5 14.582031 11.078125 6.78125 23.179688 11.179688 35.617188 13.21875 11.101562 1.839844 22.441406 1.78125 33.519531-.179687 1.363281-.238281 2.742187-.5 4.101563-.820313.179687-.019531.339843-.058594.519531-.097656 17.742187-4 34.582031-12.902344 48.378906-26.703125 16.222656-16.21875 25.683594-36.660156 28.34375-57.777344.117187-.941406.21875-1.859375.316406-2.800781.742188-7.601562.601563-15.28125-.398437-22.839844zm0 0" fill="#fce8cb"/><path d="m241.828125 127c-.003906-.042969-.007813-.082031-.015625-.125-1.015625-7.785156-2.9375-15.421875-5.703125-22.679688-1.226563-3.292968-2.660156-6.582031-4.265625-9.773437-.507812-1.011719-1.035156-2.023437-1.566406-2.945313-4.195313-7.765624-9.417969-14.96875-15.511719-21.410156-.679687-.722656-1.363281-1.425781-2.066406-2.125-3.289063-3.289062-6.871094-6.414062-10.648438-9.289062-40.519531-30.710938-98.230469-26.71875-134.234375 9.289062-22.3125 22.316406-32.992187 53.097656-29.292968 84.460938.121093 1.039062.25 2.058594.40625 3.046875 1.214843 8.457031 3.542968 16.800781 6.921874 24.792969 2.414063 5.769531 5.496094 11.503906 9.214844 17.109374.371094.523438.738282 1.070313 1.136719 1.652344 3.398437 4.863282 7.308594 9.511719 11.617187 13.824219 5.757813 5.757813 12.167969 10.808594 19.054688 15.015625 11.265625 6.894531 23.613281 11.476562 36.695312 13.621094 5.554688.921875 11.144532 1.382812 16.734376 1.382812 5.949218 0 11.898437-.523437 17.800781-1.566406 1.367187-.242188 2.757812-.503906 4.128906-.824219.191406-.027343.382813-.070312.628906-.125 18.863281-4.253906 36.101563-13.765625 49.839844-27.503906 16.242187-16.238281 26.335937-36.824219 29.195313-59.523437.121093-.957032.222656-1.894532.324218-2.855469.003906-.007813.003906-.019531.003906-.03125.753907-7.765625.621094-15.644531-.398437-23.417969zm-5.570313 22.816406c-.101562.917969-.199218 1.8125-.3125 2.734375-2.691406 21.367188-12.199218 40.742188-27.488281 56.035157-12.933593 12.933593-29.160156 21.886718-46.910156 25.890624-.003906 0-.203125.046876-.207031.046876-.121094.011718-.234375.035156-.351563.0625-1.304687.304687-2.628906.554687-3.933593.785156-10.773438 1.90625-21.707032 1.960937-32.511719.171875-12.320313-2.019531-23.941407-6.332031-34.542969-12.820313-6.480469-3.957031-12.519531-8.714844-17.945312-14.140625-4.058594-4.0625-7.742188-8.441406-10.917969-12.980469-.390625-.578124-.777344-1.152343-1.121094-1.636718-3.460937-5.21875-6.367187-10.617188-8.636719-16.046875-3.183594-7.53125-5.375-15.378907-6.523437-23.371094-.152344-.957031-.265625-1.898437-.382813-2.855469-3.480468-29.519531 6.574219-58.5 27.582032-79.507812 18.636718-18.632813 43.441406-28.160156 68.339843-28.160156 20.394531 0 40.847657 6.394531 58.023438 19.40625 3.558593 2.707031 6.9375 5.65625 10.035156 8.753906.660156.660156 1.300781 1.316406 1.941406 2 5.742188 6.066406 10.652344 12.839844 14.640625 20.214844.511719.886718.984375 1.796874 1.441406 2.710937 1.507813 3 2.855469 6.085937 4.015626 9.199219 2.59375 6.804687 4.394531 13.953125 5.355468 21.238281.003906.042969.007813.085937.015625.128906.976563 7.351563 1.105469 14.800781.394531 22.140625zm0 0" fill="#3a312a"/><path d="m147.84375 45.125c-11.71875 0-57.417969 52.796875-57.417969 107.808594h38.667969c-9.375-67.96875 30.46875-107.808594 18.75-107.808594zm0 0" fill="#87796f"/><path d="m152.246094 44.269531c-.628906-.980469-1.902344-2.144531-4.402344-2.144531-13.53125 0-60.417969 53.675781-60.417969 110.808594 0 1.660156 1.339844 3 3 3h38.671875c.867188 0 1.691406-.375 2.261719-1.027344.570313-.65625.828125-1.523438.707031-2.382812-5.96875-43.289063 8.433594-74.96875 16.171875-91.984376 3.992188-8.78125 5.992188-13.183593 4.007813-16.269531zm-9.46875 13.78125c-7.789063 17.125-22.109375 48.628907-17.085938 91.882813h-32.222656c1.546875-52.71875 43.296875-98.289063 53.355469-101.613282-.597657 2.144532-2.410157 6.128907-4.046875 9.730469zm0 0" fill="#3a312a"/><path d="m200.398438 126.964844c.78125-22.71875 6.660156-41.21875 12.179687-54.839844-.65625-.699219-1.316406-1.378906-2-2.058594-3.277344-3.28125-6.738281-6.28125-10.339844-9.023437-15.5 18.023437-33.660156 49.242187-36.699219 82.320312-.300781 3.179688-.460937 6.359375-.460937 9.5625h38.660156c-1.257812-9.179687-1.636719-17.839843-1.339843-25.960937zm0 0" fill="#87796f"/><path d="m215.359375 73.253906c.441406-1.085937.207031-2.332031-.59375-3.183594-.679687-.722656-1.363281-1.425781-2.066406-2.128906-3.289063-3.289062-6.871094-6.414062-10.644531-9.285156-1.261719-.960938-3.058594-.773438-4.089844.433594-16.074219 18.683594-34.339844 50.5625-37.414063 83.996094-.3125 3.328124-.472656 6.636718-.472656 9.839843 0 1.65625 1.34375 3 3 3h38.660156c.867188 0 1.691407-.378906 2.257813-1.027343.570312-.65625.832031-1.523438.714844-2.382813-1.179688-8.585937-1.621094-17.144531-1.316407-25.449219.617188-17.863281 4.53125-35.46875 11.964844-53.8125zm-17.957031 53.601563c-.277344 7.542969.035156 15.285156.9375 23.070312h-32.210938c.066406-2.066406.199219-4.167969.398438-6.289062 2.828125-30.761719 19.152344-60.230469 34.144531-78.445313 2.734375 2.210938 5.347656 4.554688 7.789063 6.996094.203124.207031.410156.414062.613281.621094-7.230469 18.359375-11.054688 36.0625-11.671875 54.046875zm0 0" fill="#3a312a"/><path d="m71.699219 169.664062c1.800781-52.039062 30.242187-81.839843 20.101562-81.839843-8.742187 0-36.421875 29.421875-49.902343 67.199219 1.179687 8.222656 3.441406 16.300781 6.722656 24.0625 2.398437 5.738281 5.398437 11.257812 8.898437 16.539062h15.519531c-1.257812-9.179688-1.640624-17.839844-1.339843-25.960938zm0 0" fill="#87796f"/><path d="m92.195312 103.238281c3.992188-8.78125 5.996094-13.183593 4.007813-16.269531-.628906-.976562-1.902344-2.144531-4.402344-2.144531-8.359375 0-21.640625 15.730469-25.511719 20.554687-6.628906 8.253906-18.976562 25.546875-27.214843 48.636719-.164063.457031-.214844.953125-.144531 1.433594 1.214843 8.457031 3.542968 16.800781 6.921874 24.792969 2.414063 5.769531 5.496094 11.503906 9.167969 17.039062.554688.839844 1.496094 1.34375 2.5 1.34375h15.519531c.863282 0 1.691407-.375 2.257813-1.027344.570313-.65625.832031-1.519531.714844-2.382812-1.179688-8.585938-1.621094-17.144532-1.316407-25.445313 1.050782-30.363281 11.347657-53.003906 17.5-66.53125zm-23.492187 66.316407c-.277344 7.542968.035156 15.285156.933594 23.070312h-10.492188c-3.078125-4.800781-5.683593-9.742188-7.761719-14.707031-3.082031-7.300781-5.238281-14.894531-6.40625-22.585938 13.175782-36.363281 37.980469-61.59375 45.789063-64.261719-.609375 2.15625-2.40625 6.109376-4.035156 9.683594-6.332031 13.933594-16.9375 37.253906-18.027344 68.800782zm0 0" fill="#3a312a"/><path d="m164.453125 87.824219c-11.71875 0-57.421875 52.796875-57.421875 107.808593h38.671875c-9.375-67.964843 30.46875-107.808593 18.75-107.808593zm0 0" fill="#87796f"/><path d="m168.855469 86.96875c-.632813-.976562-1.90625-2.140625-4.402344-2.140625-13.53125 0-60.421875 53.675781-60.421875 110.804687 0 1.660157 1.34375 3 3 3h38.671875c.867187 0 1.691406-.375 2.261719-1.027343.570312-.65625.828125-1.523438.710937-2.382813-5.972656-43.289062 8.429688-74.964844 16.171875-91.984375 3.988282-8.777343 5.992188-13.183593 4.007813-16.269531zm-9.472657 13.785156c-7.785156 17.125-22.105468 48.625-17.085937 91.878906h-32.21875c1.546875-52.714843 43.296875-98.289062 53.355469-101.613281-.597656 2.148438-2.410156 6.132813-4.050782 9.734375zm0 0" fill="#3a312a"/><path d="m233.300781 105.246094c-1.199219-3.222656-2.582031-6.382813-4.140625-9.480469-.480468-.960937-.980468-1.921875-1.519531-2.859375-7.820313 6.4375-18.160156 18.597656-27.242187 34.058594-4.636719 7.898437-8.957032 16.660156-12.4375 25.960937-5.019532 13.4375-8.28125 27.980469-8.28125 42.699219h38.679687c-5.71875-41.519531 6.902344-72.539062 14.941406-90.378906zm0 0" fill="#87796f"/><path d="m236.109375 104.195312c-1.226563-3.292968-2.660156-6.582031-4.265625-9.773437-.507812-1.011719-1.035156-2.023437-1.605469-3.015625-.441406-.765625-1.195312-1.296875-2.0625-1.457031-.875-.160157-1.765625.078125-2.445312.636719-9.03125 7.4375-19.464844 20.46875-27.917969 34.855468-5.074219 8.640625-9.332031 17.53125-12.664062 26.429688-5.617188 15.046875-8.46875 29.765625-8.46875 43.75 0 1.660156 1.34375 3 3 3h38.679687c.867187 0 1.691406-.375 2.261719-1.027344.570312-.652344.828125-1.519531.710937-2.378906-5.921875-42.972656 8.53125-75.042969 14.703125-88.742188.324219-.714844.351563-1.535156.074219-2.277344zm-21.152344 88.429688h-32.230469c.378907-12.371094 3.078126-25.359375 8.042969-38.652344 3.207031-8.570312 7.320313-17.148437 12.214844-25.488281 7.242187-12.332031 15.929687-23.5625 23.769531-30.820313 1.214844 2.453126 2.320313 4.960938 3.296875 7.484376-6.453125 14.363281-19.929687 45.652343-15.09375 87.476562zm0 0" fill="#3a312a"/><path d="m108.398438 130.523438c-3.5 0-10.058594 4.742187-17.519532 12.839843-6.179687 6.703125-12.980468 15.722657-19.179687 26.300781-4.640625 7.902344-8.960938 16.660157-12.417969 25.960938-.222656.539062-.421875 1.097656-.621094 1.660156 3.300782 4.71875 7.058594 9.199219 11.28125 13.417969 5.699219 5.703125 11.917969 10.5625 18.5 14.582031-1.660156-31.5625 6.980469-56.140625 13.957032-72.359375 6.28125-14.601562 11.179687-22.402343 6-22.402343zm0 0" fill="#87796f"/><path d="m112.800781 129.667969c-.628906-.980469-1.90625-2.144531-4.402343-2.144531-6.097657 0-14.976563 8.652343-19.722657 13.808593-4.8125 5.214844-12.113281 14.101563-19.5625 26.8125-5.085937 8.660157-9.339843 17.554688-12.609375 26.347657-.238281.582031-.453125 1.179687-.667968 1.78125-.328126.917968-.191407 1.933593.367187 2.730468 3.402344 4.859375 7.308594 9.511719 11.617187 13.820313 5.757813 5.757812 12.171876 10.8125 19.058594 15.019531.480469.292969 1.019532.4375 1.5625.4375.53125 0 1.0625-.140625 1.535156-.421875.957032-.570313 1.519532-1.621094 1.460938-2.734375-1.644531-31.253906 7.042969-55.5 13.71875-71.015625 1.292969-3.007813 2.53125-5.722656 3.625-8.140625 4-8.796875 6.007812-13.214844 4.019531-16.300781zm-9.480469 13.820312c-1.113281 2.449219-2.363281 5.203125-3.675781 8.25-6.496093 15.097657-14.828125 38.1875-14.394531 67.882813-4.695312-3.265625-9.113281-6.964844-13.1875-11.039063-3.683594-3.683593-7.054688-7.628906-10.039062-11.746093.023437-.054688.046874-.113282.070312-.167969 3.179688-8.550781 7.28125-17.125 12.195312-25.488281 7.179688-12.253907 14.183594-20.785157 18.800782-25.785157 6.734375-7.3125 11.710937-10.714843 14.269531-11.613281-.613281 2.167969-2.414063 6.128906-4.039063 9.707031zm0 0" fill="#3a312a"/><path d="m181.058594 130.523438c-11.480469 0-55.238282 49.542968-57 107.980468 11.101562 1.839844 22.441406 1.78125 33.519531-.179687 1.363281-.238281 2.742187-.5 4.101563-.820313-8.039063-66.398437 30.941406-106.980468 19.378906-106.980468zm0 0" fill="#87796f"/><path d="m185.425781 129.65625c-.628906-.972656-1.898437-2.132812-4.367187-2.132812-13.46875 0-58.199219 51.148437-60 110.890624-.042969 1.5 1.03125 2.804688 2.507812 3.050782 5.554688.917968 11.144532 1.378906 16.734375 1.378906 5.949219 0 11.898438-.519531 17.800781-1.566406 1.414063-.25 2.851563-.519532 4.265626-.851563 1.488281-.351562 2.472656-1.761719 2.289062-3.28125-5.074219-41.90625 9.0625-73.578125 16.65625-90.597656 4.089844-9.164063 6.144531-13.761719 4.113281-16.890625zm-9.589843 14.445312c-7.664063 17.175782-21.796876 48.839844-17.441407 91.027344-.445312.082032-.890625.164063-1.335937.242188-9.902344 1.75-19.945313 1.941406-29.886719.574218 2.816406-53.480468 41.5-99.082031 52.882813-102.238281-.574219 2.230469-2.492188 6.523438-4.21875 10.394531zm0 0" fill="#3a312a"/><path d="m441.699219 400.246094-73.800781-73.800782c-3.578126-3.582031-9.398438-3.582031-12.957032 0l-8.519531 8.519532 65.277344 65.28125c1.742187 1.738281 2.679687 4.039062 2.679687 6.476562 0 2.460938-.9375 4.761719-2.679687 6.480469l-20.097657 20.101563 8.519532 8.519531c1.738281 1.742187 4.039062 2.679687 6.480468 2.679687 2.457032 0 4.757813-.9375 6.476563-2.679687l28.621094-28.621094c1.742187-1.71875 2.679687-4.019531 2.679687-6.480469 0-2.4375-.9375-4.738281-2.679687-6.476562zm0 0" fill="#6ca8bf"/></svg>